<?xml version="1.0" encoding="utf-8"?>
<!-- Generator: Adobe Illustrator 24.0.1, SVG Export Plug-In . SVG Version: 6.00 Build 0)  -->
<svg version="1.1" id="Layer_1" xmlns="http://www.w3.org/2000/svg" xmlns:xlink="http://www.w3.org/1999/xlink" x="0px" y="0px"
	 viewBox="0 0 70 20" style="enable-background:new 0 0 70 20;" xml:space="preserve">
<style type="text/css">
	.st0{fill:#FFF;}
</style>
<path class="st0" d="M68.86,9.6c0-0.06,0.01-0.11,0-0.16c-0.04-0.27-0.18-0.53-0.43-0.69L56.89,1.03c-0.46-0.31-1.08-0.18-1.39,0.28
	s-0.18,1.08,0.28,1.39l8.85,5.91H2.46c-0.55,0-1,0.45-1,1s0.45,1,1,1h62.16l-8.85,5.91c-0.46,0.31-0.58,0.93-0.28,1.39
	c0.19,0.29,0.51,0.44,0.83,0.44c0.19,0,0.38-0.05,0.55-0.17l11.55-7.71c0.25-0.16,0.39-0.42,0.43-0.69
	C68.87,9.71,68.86,9.65,68.86,9.6z"/>
</svg>
