<svg width="69" height="18" viewBox="0 0 69 18" fill="none" xmlns="http://www.w3.org/2000/svg">
<path d="M68.3032 8.83229C68.3032 8.77229 68.3132 8.72229 68.3032 8.67229C68.2632 8.40229 68.1232 8.14229 67.8732 7.98229L56.3332 0.262287C55.8732 -0.0477129 55.2532 0.0822871 54.9432 0.542287C54.6332 1.00229 54.7632 1.62229 55.2232 1.93229L64.0732 7.84229L1.90323 7.84229C1.35323 7.84229 0.903229 8.29229 0.903229 8.84229C0.903229 9.39229 1.35323 9.84229 1.90323 9.84229L64.0632 9.84229L55.2132 15.7523C54.7532 16.0623 54.6332 16.6823 54.9332 17.1423C55.1232 17.4323 55.4432 17.5823 55.7632 17.5823C55.9532 17.5823 56.1432 17.5323 56.3132 17.4123L67.8632 9.70229C68.1132 9.54229 68.2532 9.28229 68.2932 9.01229C68.3132 8.94229 68.3032 8.88229 68.3032 8.83229Z" fill="white"/>
</svg>
