<svg width="19" height="68" viewBox="0 0 19 68" fill="none" xmlns="http://www.w3.org/2000/svg">
<path d="M9.59999 0.140004C9.53999 0.140004 9.48999 0.130004 9.43999 0.140004C9.16999 0.180004 8.90999 0.320004 8.74999 0.570004L1.02999 12.11C0.719987 12.57 0.849987 13.19 1.30999 13.5C1.76999 13.81 2.38999 13.68 2.69999 13.22L8.60999 4.37001V66.54C8.60999 67.09 9.05999 67.54 9.60999 67.54C10.16 67.54 10.61 67.09 10.61 66.54V4.38L16.52 13.23C16.83 13.69 17.45 13.81 17.91 13.51C18.2 13.32 18.35 13 18.35 12.68C18.35 12.49 18.3 12.3 18.18 12.13L10.47 0.580006C10.31 0.330006 10.05 0.190006 9.77999 0.150006C9.70999 0.130006 9.64999 0.140004 9.59999 0.140004Z" fill="white"/>
</svg>
