<?xml version="1.0" encoding="utf-8"?>
<!-- Generator: Adobe Illustrator 24.0.1, SVG Export Plug-In . SVG Version: 6.00 Build 0)  -->
<svg version="1.1" id="Layer_1" xmlns="http://www.w3.org/2000/svg" xmlns:xlink="http://www.w3.org/1999/xlink" x="0px" y="0px"
	 viewBox="0 0 480 280" style="enable-background:new 0 0 480 280;" xml:space="preserve">
<style type="text/css">
	.st0{fill:#00A099;}
	.st1{fill:#39A935;}
	.st2{fill:#93C01F;}
</style>
<g>
	<g>
		<path class="st0" d="M255.94,30.36c-0.75-3.68-2.81-6.58-5.72-9.14c-4.99-4.4-14.77-5.21-18.87-0.2
			c-3.97,4.85-9.23,5.11-14.39,6.08c-4.12,0.77-8.1,1.23-11.47,4.26c-0.19,0.17-0.39,0.35-0.59,0.52h51.49
			C256.21,31.39,256.05,30.89,255.94,30.36z"/>
		<path class="st0" d="M136.44,253.27c-1.55,0.37-3.78-0.67-4.18,1.74c-0.41,2.47,1.92,3.45,3.26,5.07c3.22,3.89,8.25,3.67,12.1,6.1
			c2.7,1.71,6.25,0.71,7.56,5.77c1.16,4.5,6.46,2.9,9.12-3.03c0.98,0.79,1.87,1.68,2.91,2.32c3.08,1.87,9.64-1.55,9.91-5.06
			c0.1-1.28-0.69-3.06,1.18-3.6c1.97-0.57,2.49,1.18,3.39,2.46c1.42,2.03,3.04,4.37,5.98,2.42c2.84-1.89,5.21-4.29,5.97-7.84
			c0.5-2.34,2.87-5.22,5.57-7.29h-60.63C137.93,252.77,137.18,253.09,136.44,253.27z"/>
		<path class="st0" d="M174.31,31.88c0.74-1.22,0.89-2.65,0.92-4.24c0.06-3.59-1.83-6.06-4.02-8.56c-2.02-2.31-4.21-4.69-2.68-8.25
			c0.84-1.97,2.19-4.34-0.64-5.61c-2.4-1.07-5.48-1.55-7.35,0.7c-2.01,2.41-3.61,2.67-6.31,1.29c-3.06-1.57-7.32,0.86-8.06,4.21
			c-0.66,2.95-6.38,5-9,3.22c-2.91-1.97-10.21-1.87-11.89,0.98c-3,5.1-7.44,6.01-12.65,6.76c-2.42,0.35-3.21,0.02-4.77-1.72
			c-2.08-2.32-5-3.97-7.74-5.61c-1.56-0.94-3.52-1.64-4.56,1.03c-0.84,2.15-1.5,4.28,1.32,5.36c1.02,0.4,1.95,0.54,0.94,1.65
			c-2.47,2.72-3.06,6.94-6.39,8.8c-3.11,1.73-2.6,3.31-0.73,5.41c0.72,0.81,2.1,1.17,0.89,2.91c-1.99,2.87-4.6,4.37-7.87,5.25
			c-2.64,0.71-3.59-0.68-4.56-2.64c-0.24-0.47-1.34-0.63-2.07-0.73c-2.09-0.27-4.35-0.23-5.18,2.04c-0.97,2.65-2.4,5.48-0.66,8.36
			c2.4,3.97,5.85,7.58,3.08,12.87c-0.59,1.12-6.06-0.08-9.7,3.59c-1.53,1.54-10.56-5.2-14.6,0.38c-1.48,2.04-2.81,4.19-5.5,4.61
			c-4.02,0.62-5.54,2.85-5.03,6.82c0.34,2.68-0.23,5.04-3.63,5.21c-2.06,0.1-3.31,1.32-3.53,3.08c-0.26,2.11,1.82,2.07,3.21,2.6
			c4.47,1.7,5.08,2.85,2.17,6.17c-3.42,3.91-2.23,6.99,0.79,10.09c0.84,0.86,2.7,1.59,1.99,2.75c-2.2,3.55,0.12,6.59,0.59,9.83
			c0.45,3.11,0.19,5.7-4,5.47c-5.27-0.29-10.16,1.41-15.18,2.71c-2.61,0.68-5.28,2.22-8.09,1.46c-2.9-0.78-4.59,0.54-5.58,2.83
			c-1.01,2.34,1.03,3.22,2.65,4.17c3.02,1.78,5.21,4.04,4.71,7.94c-0.07,0.55,0.18,1.29,0.55,1.71c2.93,3.36,7.65,5.75,6.02,11.51
			c-0.06,0.21,0.53,0.84,0.87,0.89c4.55,0.69,2.57,3.26,1.83,5.7c-1.05,3.49-3.11,6.36-5.06,9.35c-4.12,6.28-2.89,9.36,4.3,11.17
			c3.59,0.9,4.39,3.4,2.36,6.44c-1.85,2.78-3.81,5.45-5.79,8.13c-3.67,4.96-3.32,5.78,2.11,8.82c0.53,0.3,1.11,0.63,1.46,1.1
			c2.49,3.33,4.83,2.72,6.99-0.28c1.55-2.15,2.89-1.98,5.39-1.02c7.04,2.69,14.29,5.12,21.96,1.87c2.07-0.88,3.62-0.16,3.93,2.3
			c0.19,1.52,0.35,3.05,0.56,4.58c0.69,5.05,2.49,6.42,7.66,6.55c2.88,0.07,5.84-0.93,8.68,0.65c0.86,0.48,2.46,0.48,3.03-0.47
			c1.53-2.57,4.44-2.88,6.68-3.82c3.6-1.52,7.66-5.04,11.11-3.35c2.35,1.15,3.98,1.58,5.53,0.97V31.88H174.31z"/>
		<path class="st0" d="M471.59,125.7c-0.85-1.09-2.16-0.79-3.42-0.37c-2.38,0.8-8.69-3.88-8.65-6.35c0.01-0.85,0.44-1.54,1.17-1.85
			c3.57-1.54,2.73-4.68,3.04-7.56c0.44-4.06-1.87-7.84-0.64-12.03c1.03-3.51-1.69-5.68-5.55-4.9c-3.14,0.64-5.99,1.5-8.57-1.95
			c-1.37-1.83-5.14-2.58-6.58-0.17c-1.91,3.21-4.43,2.81-7.1,2.78c-2.58-0.03-4.84,0.97-7.17,1.79c-2.09,0.74-2.63,2.99-4.19,4.2
			c-6.97,5.37-14.4,0.57-21.6,0.86c-0.18,0.01-0.49-0.44-0.55-0.71c-1.02-5.39-4.42-9.5-7.35-13.9c-1.32-1.98-2.36-4.42-4.99-4.24
			c-2.27,0.15-2.88,2.57-3.42,4.48c-0.86,3.04-2.62,2.57-4.93,1.74c-2.41-0.86-2.73-3.72-4.7-4.63c-9.06-4.19-12.23-2.83-16.11,6.58
			c-0.18,0.43-0.26,0.91-0.48,1.31c-2.03,3.66-5.89,4.03-8.44,0.75c-1.61-2.08-3.22-4.2-4.49-6.48c-1.55-2.78-3.26-4.66-6.88-4.3
			c-2.58,0.25-4.72-1.57-6.54-3.15c-1.77-1.52,0.48-3.05,0.78-4.6c0.64-3.3-0.96-4.97-4.55-4.03c-1.22,0.32-2.37,0.69-3.49,0.74
			v138.2c0.25-0.52,0.5-0.93,0.75-1.19c2.03-2.1,11.51-5.6,16.33-5.98c2.18-0.17,3.65-0.27,4.22-3.06c0.7-3.47,7.08-6.77,9.92-5.18
			c5.23,2.94,9.92,3.33,14.29-1.93c0.71,3.1,1.46,5.84,4.67,5.29c4.96-0.85,10.96,2.57,14.75-3.37c0.14-0.21,0.56-0.39,0.83-0.36
			c4.23,0.45,6.4-2.45,8.75-5.19c1.73-2.01,3.83-2.98,6.61-1.89c1.09,0.43,2.59,0.6,3.65,0.21c4.33-1.58,6.41,0.73,7.87,4.2
			c1.1,2.62,2.65,4.62,5.22,6.16c5.76,3.46,13.64,3.03,17.68,9.62c0.11,0.19,0.66,0.32,0.86,0.22c2.14-1.14,3.73,0.39,5.61,0.86
			c3.08,0.77,6.15-0.69,8.26-2.7c1.88-1.79-0.67-3.15-1.82-4.48c-1.23-1.42-0.85-2.74,0.74-3.32c2.26-0.82,2.89-2.58,2.31-4.38
			c-0.71-2.2-2.72-2.08-4.69-1.44c-2.14,0.69-3.17,0.19-2.8-2.41c1.49-10.46,1.12-20.45-7.65-28.19c-0.89-0.78-1.13-2.24-1.97-3.11
			c-7.16-7.41,2.04-12.33,1.82-15.99c-0.13-2.19,0.93-2.63,2.81-2.47c1.7,0.14,3.52-0.27,5.11,0.17c9.37,2.59,15.92-0.84,20.51-9.04
			C471.48,127.85,472.52,126.88,471.59,125.7z"/>
	</g>
	<circle class="st0" cx="202.63" cy="213.59" r="3.53"/>
	<circle class="st1" cx="128.47" cy="162.48" r="3.53"/>
	<circle class="st1" cx="305.51" cy="168.61" r="2.64"/>
	<path class="st2" d="M224.47,203.99c0,0-15.97,7.48-7.61,24.66C216.86,228.66,232.39,220.57,224.47,203.99z"/>
	<path class="st1" d="M153.32,175.63c0,0-15.35-8.69-24.52,8.07C128.8,183.69,144.39,191.68,153.32,175.63z"/>
	<path class="st2" d="M296.47,154.33c0,0-16.63,5.89-9.99,23.8C286.48,178.14,302.73,171.6,296.47,154.33z"/>
	<path class="st1" d="M167.44,217.24c0,0,18.41,8.94,27.8-11.14C195.24,206.1,176.61,198,167.44,217.24z"/>
	<g>
		<path class="st0" d="M167.44,105.48c-2.03,0-3.67,1.65-3.67,3.67c0,2.03,1.65,3.67,3.67,3.67s3.67-1.65,3.67-3.67
			C171.12,107.12,169.47,105.48,167.44,105.48z"/>
		<path class="st0" d="M326.22,28.35H105.76c-1.95,0-3.53,1.58-3.53,3.53v220.46c0,1.95,1.58,3.53,3.53,3.53h220.46
			c1.95,0,3.53-1.58,3.53-3.53V31.88C329.74,29.93,328.16,28.35,326.22,28.35z M266.46,167.92l20.75,25.82
			c-19.07-5.36-36.53-9.91-52.22-13.76l21.87-28.37c0.93-1.21,0.98-2.89,0.11-4.15l-4.59-6.68c1.63-1.69,3.18-3.48,4.67-5.36
			c5.91-2.31,10.53-5.16,14.09-8.01c12.17-9.76,14.98-21.42,15.09-21.92c0.23-1,0.01-2.06-0.6-2.89c-0.61-0.83-1.56-1.35-2.59-1.42
			c-1.77-0.13-3.51-0.22-5.21-0.3c9.83-17.76,22.5-38.68,44.86-59.98v163.2c-8.15-2.47-16.07-4.81-23.74-7.02l-26.99-33.57
			c-1.22-1.52-3.44-1.76-4.96-0.54C265.48,164.18,265.24,166.4,266.46,167.92z M246.59,121.35c4.33,0,8.89-0.27,13.47-0.92
			c-19.4,4.72-36.25,3.15-45.04,1.65c1.74-1.25,3.56-2.43,5.49-3.52C224.55,119.44,234.68,121.35,246.59,121.35z M232.21,113.34
			c12.51-4.33,27.72-6.18,45.2-5.41c-0.08,0.04-0.17,0.06-0.25,0.1C262.92,115.41,244.18,114.81,232.21,113.34z M233.38,130.71
			c6.34,0,13.52-0.5,21.24-1.89c-12.89,5.08-29.66,5.89-49.42,2.3c0.9-1.08,1.88-2.16,2.94-3.23
			C211.75,128.78,220.93,130.71,233.38,130.71z M243.23,139.16c0.02,0.15,0.04,0.3,0.07,0.45c-11.22,9.66-23.3,13.85-35.93,12.4
			c-4.05-0.46-7.91-1.48-11.51-2.86c0.59-2.43,1.95-6.77,4.9-11.73c0.17,0.06,0.34,0.11,0.51,0.14
			C218.56,140.97,232.32,140.98,243.23,139.16z M211.82,159.33c0.17,0,0.35,0.01,0.52,0.01c12.28,0,23.95-4.61,34.81-13.73
			l2.56,3.73l-22.21,28.82c-9.22-2.21-17.77-4.17-25.63-5.89L211.82,159.33z M109.28,248.81V35.4h208.95
			c-24.77,23.47-37.98,46.34-48.36,65.31c-22.74,0-39.03,4.53-50.57,10.5c-0.89,0.46-1.75,0.93-2.58,1.41
			c-5.77,3.29-10.24,6.91-13.68,10.39c-8.67,8.79-12.26,17.94-13.7,23.12c-8.73-4.72-15.34-11.23-18.52-16.01
			c-3.62-5.43-7.74-10.42-12.25-14.83c-1.08-1.06-1.93-2.1-2.59-3.04c-0.33-0.77-0.52-1.53-0.55-2.29c-0.1-2.73,1.87-4.74,1.87-4.74
			c0.34-0.32,0.6-0.7,0.78-1.11c18.33-12.22,32.46,5.93,33.05,6.7c1.08,1.43,3.05,1.83,4.59,0.92
			c22.96-13.39,66.65-14.21,67.09-14.22c1.33-0.02,2.54-0.79,3.12-1.98l12.69-26.05c0.85-1.75,0.13-3.86-1.63-4.71
			c-1.75-0.85-3.86-0.12-4.71,1.63l-11.76,24.13c-9.08,0.32-43.72,2.25-65.73,13.68c-7.54-8.23-23.4-17.68-40.91-5.78
			c-0.15,0.1-0.34,0.21-0.56,0.33l-18.79-3.88c-1.82-0.37-3.61,0.72-4.11,2.51c-0.5,1.79,0.48,3.65,2.22,4.27
			c3.09,1.09,12.16,5.33,13.26,10.33c0.45,2.05-0.62,4.36-3.19,6.87c-1.19,1.16-1.41,3-0.52,4.41c0.66,1.05,1.8,1.64,2.98,1.64
			c0.41,0,0.82-0.07,1.22-0.22c2.3-0.85,6.29-2.03,8.25-2.12l1.36,0.19c3.24,3.45,6.25,7.21,8.95,11.26
			c5.55,8.33,20.15,21.25,38.56,24.51l-9.27,12.05c-34.74-7.41-53.94-9.91-54.3-9.95c-1.94-0.24-3.7,1.12-3.94,3.05
			s1.12,3.7,3.05,3.94c0.49,0.06,36.73,4.79,100.13,20.62l-39.21,11.35c-1.87,0.54-2.95,2.5-2.41,4.37
			c0.45,1.54,1.86,2.55,3.38,2.55c0.33,0,0.66-0.05,0.98-0.14l50.74-14.69c12.35,3.2,25.59,6.79,39.68,10.81
			c-5.68,1.02-12.19,4.67-15.57,15.19c0,0,18.04,5.24,25.34-12.37c6.68,1.95,13.53,3.99,20.56,6.13v37.34H109.28z"/>
	</g>
</g>
</svg>
