<?xml version="1.0" encoding="utf-8"?>
<!-- Generator: Adobe Illustrator 24.0.1, SVG Export Plug-In . SVG Version: 6.00 Build 0)  -->
<svg version="1.1" id="Layer_1" xmlns="http://www.w3.org/2000/svg" xmlns:xlink="http://www.w3.org/1999/xlink" x="0px" y="0px"
	 viewBox="0 0 400 90" style="enable-background:new 0 0 400 90;" xml:space="preserve">
<style type="text/css">
	.st0{fill:#00A099;}
	.st1{fill:#FFFFFF;}
	.st2{fill:#39A935;}
	.st3{fill:#93C01F;}
	.st4{fill:#185257;}
</style>
<g>
	<g>
		<path class="st0" d="M23.24,21.89c0.87-1.65-0.21-2.78-0.96-4.02c-0.54-0.9-0.1-1.78,0.21-2.61c0.26-0.71,0.97-0.72,1.62-0.64
			c0.23,0.03,0.57,0.08,0.65,0.23c0.3,0.61,0.6,1.05,1.43,0.82c1.02-0.28,1.84-0.74,2.46-1.64c0.38-0.54-0.05-0.66-0.28-0.91
			c-0.58-0.66-0.74-1.15,0.23-1.69c1.04-0.58,1.22-1.9,2-2.75c0.32-0.35,0.03-0.39-0.29-0.52c-0.88-0.34-0.67-1-0.41-1.68
			c0.32-0.83,0.94-0.61,1.43-0.32c0.86,0.51,1.77,1.03,2.42,1.75c0.49,0.54,0.73,0.65,1.49,0.54c1.63-0.23,3.02-0.52,3.95-2.11
			c0.52-0.89,2.81-0.92,3.71-0.31c0.82,0.56,2.61-0.08,2.81-1.01c0.23-1.05,1.56-1.8,2.52-1.32c0.84,0.43,1.34,0.35,1.97-0.4
			c0.59-0.7,1.55-0.55,2.3-0.22c0.89,0.4,0.47,1.14,0.2,1.75c-0.48,1.11,0.21,1.85,0.84,2.58c0.68,0.78,1.27,1.55,1.26,2.68
			c-0.01,0.72-0.1,1.34-0.72,1.79c-0.38,0.27-0.63,0.6-0.24,1.08c0.38,0.47,0.77,0.49,1.27,0.18c0.86-0.53,1.68-1.12,2.57-1.61
			c1.68-0.92,2.82-1.03,4.3,0.11c0.99,0.76,1.71,0.13,2.29-0.39c1.05-0.95,2.3-1.09,3.58-1.33c1.61-0.3,3.25-0.38,4.49-1.9
			c1.28-1.56,4.34-1.31,5.9,0.06c0.91,0.8,1.55,1.7,1.79,2.86c0.26,1.3,1.51,2.13,1.5,3.64c-0.01,0.66,1.13,1.25,2.09,1.26
			c1.19,0.01,2.33,0.07,2.85,1.44c0.17,0.45,0.64,0.55,1.11,0.5c1.71-0.17,2.7,0.83,3.43,2.18c0.27,0.49,0.57,0.87,1.13,1.03
			c1.32,0.37,2.74,0.48,3.88,1.39c0.23,0.18,0.55,0.01,0.76-0.25c0.9-1.07,1.68-0.56,2.19,0.32c0.36,0.61,0.57,0.85,1.16,0.36
			c0.26-0.22,0.59-0.2,0.8,0.01c0.69,0.65,1.37,0.38,2.14,0.18c1.12-0.29,1.62,0.23,1.42,1.26c-0.09,0.48-0.8,0.96-0.24,1.44
			c0.57,0.49,1.24,1.06,2.04,0.98c1.13-0.11,1.66,0.48,2.15,1.34c0.4,0.71,0.9,1.38,1.4,2.02c0.8,1.03,2,0.91,2.64-0.23
			c0.07-0.13,0.1-0.27,0.15-0.41c1.21-2.94,2.2-3.36,5.03-2.05c0.62,0.28,0.72,1.18,1.47,1.45c0.72,0.26,1.27,0.41,1.54-0.54
			c0.17-0.6,0.36-1.35,1.07-1.4c0.82-0.06,1.15,0.71,1.56,1.32c0.91,1.37,1.98,2.66,2.29,4.34c0.02,0.08,0.11,0.22,0.17,0.22
			c2.25-0.09,4.57,1.41,6.75-0.27c0.49-0.38,0.66-1.08,1.31-1.31c0.73-0.26,1.44-0.57,2.24-0.56c0.84,0.01,1.62,0.13,2.22-0.87
			c0.45-0.75,1.63-0.52,2.05,0.05c0.81,1.08,1.7,0.81,2.68,0.61c1.2-0.25,2.05,0.43,1.73,1.53c-0.38,1.31,0.34,2.49,0.2,3.76
			c-0.1,0.9,0.17,1.88-0.95,2.36c-0.23,0.1-0.36,0.31-0.37,0.58c-0.01,0.77,1.96,2.23,2.7,1.98c0.39-0.13,0.8-0.22,1.07,0.11
			c0.29,0.37-0.04,0.67-0.23,1.02c-1.43,2.56-3.48,3.63-6.41,2.82c-0.5-0.14-1.07-0.01-1.6-0.05c-0.59-0.05-0.92,0.09-0.88,0.77
			c0.07,1.14-2.8,2.68-0.57,5c0.26,0.27,0.34,0.73,0.61,0.97c2.74,2.42,2.86,5.54,2.39,8.81c-0.12,0.81,0.21,0.97,0.87,0.75
			c0.62-0.2,1.24-0.24,1.47,0.45c0.18,0.56-0.02,1.11-0.72,1.37c-0.5,0.18-0.62,0.59-0.23,1.04c0.36,0.41,1.16,0.84,0.57,1.4
			c-0.66,0.63-1.62,1.08-2.58,0.84c-0.59-0.15-1.08-0.63-1.75-0.27c-0.06,0.03-0.23-0.01-0.27-0.07c-1.26-2.06-3.73-1.92-5.52-3
			c-0.8-0.48-1.29-1.1-1.63-1.92c-0.46-1.08-1.11-1.81-2.46-1.31c-0.33,0.12-0.8,0.07-1.14-0.07c-0.87-0.34-1.53-0.04-2.07,0.59
			c-0.73,0.85-1.41,1.76-2.73,1.62c-0.08-0.01-0.22,0.04-0.26,0.11c-1.19,1.86-3.06,0.79-4.61,1.05c-1,0.17-1.24-0.69-1.46-1.65
			c-1.37,1.64-2.83,1.52-4.47,0.6c-0.89-0.5-2.88,0.53-3.1,1.62c-0.18,0.87-0.64,0.9-1.32,0.96c-1.51,0.12-4.47,1.21-5.1,1.87
			c-0.58,0.61-1.18,3.98-1.75,3.18c-0.37-0.53-1.23,0.29-1.33,0.7c-0.49,2.08-2.49,2.42-3.83,3.5c-0.37,0.3-0.81,0.23-1.23-0.02
			c-1.08-0.64-2.01-0.31-2.93,0.42c-1.66,1.31-3.35,2.59-5.04,3.86c-0.38,0.28-0.83,0.51-1.28,0.66c-0.85,0.28-1.4,0.08-1.08-0.95
			c0.47-1.52-1.05-1.37-1.62-1.63c-0.76-0.36-0.86,0.58-0.85,1.23c0.01,0.73,0.12,1.55-0.87,1.73c-0.93,0.17-1.27-0.57-1.55-1.24
			c-0.42-1-0.75-1.71-2.05-0.84c-1.38,0.92-2.33,0.61-3.5-0.59c-0.45-0.46-0.63-1.43-1.82-0.45c-1.15,0.96-2.93,0.3-4.16-0.89
			c-0.34-0.33-0.79-0.54-1.2-0.81c-0.55-0.36-0.93-0.31-0.95,0.43c-0.03,1.3-0.79,1.21-1.7,0.95c-0.35-0.1-1.04-0.57-1,0.05
			c0.03,0.52-0.55,1.39,0.43,1.74c0.55,0.19,1.11,0.37,1.61,0.65c0.42,0.23,0.84,0.63,0.65,1.17c-0.15,0.45-0.65,0.51-1.1,0.55
			c-1.29,0.12-3.26,1.87-3.53,3.12c-0.24,1.11-0.98,1.86-1.87,2.45c-0.92,0.61-1.42-0.12-1.87-0.76c-0.28-0.4-0.44-0.95-1.06-0.77
			c-0.58,0.17-0.34,0.72-0.37,1.13c-0.08,1.1-2.13,2.16-3.1,1.58c-0.33-0.2-0.6-0.48-0.91-0.72c-0.83,1.85-2.49,2.35-2.85,0.95
			c-0.41-1.58-1.52-1.27-2.36-1.8c-1.2-0.76-2.78-0.69-3.78-1.91c-0.42-0.51-1.15-0.81-1.02-1.59c0.13-0.75,0.82-0.43,1.31-0.54
			c0.56-0.13,1.13-0.5,1.21-1.07c0.09-0.6-0.34-1.02-0.94-1.3c-1.75-0.83-2.82-0.68-4.35,0.76c-0.52,0.49-0.98,0.17-1.23-0.21
			c-0.71-1.09-1.81-2.08-1.3-3.62c0.18-0.53-0.16-0.9-0.44-1.31c-0.81-1.19-1.2-2.45-0.25-3.76c0.34-0.48,0.05-0.68-0.28-0.92
			c-0.39-0.29-0.79-0.69-1.26-0.17c-0.77,0.85-1.38,0.81-2.49,0.27c-1.08-0.53-2.35,0.57-3.47,1.05c-0.7,0.29-1.61,0.39-2.09,1.19
			c-0.18,0.3-0.68,0.3-0.95,0.15c-0.89-0.5-1.81-0.18-2.71-0.2c-1.62-0.04-2.18-0.47-2.39-2.05c-0.06-0.48-0.11-0.95-0.17-1.43
			c-0.1-0.77-0.58-0.99-1.23-0.72c-2.4,1.02-4.66,0.26-6.86-0.58c-0.78-0.3-1.2-0.35-1.68,0.32c-0.67,0.94-1.41,1.13-2.18,0.09
			c-0.11-0.15-0.29-0.25-0.46-0.34c-1.7-0.95-1.81-1.21-0.66-2.76c0.62-0.84,1.23-1.67,1.81-2.54c0.63-0.95,0.38-1.73-0.74-2.01
			c-2.25-0.56-2.63-1.53-1.34-3.49c0.61-0.93,1.25-1.83,1.58-2.92c0.23-0.76,0.85-1.57-0.57-1.78c-0.11-0.02-0.29-0.21-0.27-0.28
			c0.51-1.8-0.97-2.55-1.88-3.6C4.95,47.2,4.87,46.97,4.9,46.8c0.16-1.22-0.53-1.93-1.47-2.48c-0.5-0.3-1.14-0.57-0.83-1.3
			c0.31-0.72,0.84-1.13,1.74-0.88c0.88,0.24,1.71-0.25,2.53-0.46c1.57-0.41,3.09-0.94,4.74-0.85c1.31,0.07,1.39-0.74,1.25-1.71
			c-0.15-1.01-0.87-1.96-0.18-3.07c0.22-0.36-0.36-0.59-0.62-0.86c-0.94-0.97-1.32-1.93-0.25-3.15c0.91-1.04,0.72-1.4-0.68-1.93
			c-0.43-0.17-1.09-0.15-1-0.81c0.07-0.55,0.46-0.93,1.1-0.96c1.06-0.05,1.24-0.79,1.13-1.63c-0.16-1.24,0.32-1.93,1.57-2.13
			c0.84-0.13,1.26-0.8,1.72-1.44c1.26-1.74,4.08,0.36,4.56-0.12C21.35,21.86,23.06,22.24,23.24,21.89z"/>
	</g>
	<g>
		<rect x="33.07" y="11.43" class="st1" width="68.88" height="68.88"/>
		<path class="st0" d="M101.95,81.41H33.07c-0.61,0-1.1-0.49-1.1-1.1V11.43c0-0.61,0.49-1.1,1.1-1.1h68.88c0.61,0,1.1,0.49,1.1,1.1
			v68.88C103.05,80.92,102.56,81.41,101.95,81.41z M34.17,79.21h66.68V12.53H34.17V79.21z"/>
	</g>
	<path class="st0" d="M66.37,51.25c-0.6,0-1.2-0.03-1.8-0.1c-6.2-0.71-11.17-5.05-13-7.8c-1.05-1.57-2.24-3.01-3.54-4.28
		c-1.28-1.26-1.81-2.47-1.97-2.94c-0.37-0.58-0.49-1.16-0.35-1.73c0.25-1.03,1.22-1.54,1.93-1.91c0.17-0.09,0.34-0.18,0.47-0.26
		c5.47-3.72,10.42-0.77,12.78,1.81c6.88-3.57,17.7-4.17,20.54-4.27l3.67-7.54c0.27-0.55,0.93-0.77,1.47-0.51
		c0.55,0.27,0.77,0.93,0.51,1.47l-3.97,8.14c-0.18,0.37-0.56,0.61-0.97,0.62c-0.14,0-13.79,0.26-20.96,4.44
		c-0.48,0.28-1.1,0.16-1.44-0.29c-0.18-0.24-4.64-5.97-10.4-2.05c-0.19,0.13-0.43,0.26-0.69,0.39c-0.22,0.12-0.6,0.32-0.77,0.46
		c0.02,0.03,0.04,0.06,0.06,0.1c0.07,0.1,0.13,0.22,0.16,0.34c0,0,0.32,1.04,1.46,2.15c1.41,1.38,2.7,2.94,3.83,4.63
		c1.6,2.4,5.97,6.21,11.42,6.83c4.23,0.49,8.25-1.04,11.96-4.52c2.67-2.51,4.64-6.13,6.93-10.33c3.44-6.32,7.73-14.18,16.46-22.24
		c0.45-0.41,1.14-0.39,1.56,0.06c0.41,0.45,0.38,1.14-0.06,1.56C93.19,21.3,89,28.99,85.64,35.17c-2.38,4.36-4.43,8.13-7.35,10.88
		C74.6,49.51,70.6,51.25,66.37,51.25z"/>
	<g>
		<path class="st1" d="M60,48.58c0,0,1.88-16.28,28.39-14.4c0,0-3.13,13.57-25.26,9.18"/>
		<path class="st0" d="M60,49.68c-0.04,0-0.08,0-0.13-0.01c-0.6-0.07-1.04-0.62-0.97-1.22c0.02-0.17,2.32-17.31,29.56-15.38
			c0.32,0.02,0.62,0.19,0.81,0.44c0.19,0.26,0.26,0.59,0.19,0.9c-0.03,0.15-3.64,14.56-26.54,10.02c-0.05-0.01-0.1-0.02-0.14-0.04
			c-1.42,2.36-1.67,4.25-1.68,4.3C61.03,49.27,60.55,49.68,60,49.68z M64.18,42.44c16.26,2.95,21.3-4.21,22.68-7.25
			C73.87,34.59,67.39,38.62,64.18,42.44z"/>
	</g>
	<path class="st0" d="M71.68,59.29c-0.23,0-0.47-0.07-0.67-0.23c-0.48-0.37-0.57-1.06-0.2-1.54l7.23-9.38l-1.84-2.68
		c-0.34-0.5-0.22-1.19,0.28-1.53c0.5-0.34,1.19-0.22,1.53,0.28l2.3,3.34c0.27,0.39,0.26,0.92-0.04,1.3l-7.72,10.02
		C72.34,59.14,72.01,59.29,71.68,59.29z"/>
	<path class="st0" d="M61.25,56.99c-0.23,0-0.47-0.07-0.67-0.23c-0.48-0.37-0.57-1.06-0.2-1.54l4.17-5.43
		c0.37-0.48,1.06-0.57,1.54-0.2c0.48,0.37,0.57,1.06,0.2,1.54l-4.17,5.43C61.91,56.84,61.58,56.99,61.25,56.99z"/>
	<path class="st0" d="M101.33,67.63c-0.11,0-0.21-0.02-0.32-0.05c-35.79-10.9-57.32-13.71-57.53-13.74
		c-0.6-0.08-1.03-0.63-0.95-1.23c0.08-0.6,0.62-1.03,1.23-0.95c0.21,0.03,21.9,2.85,57.9,13.82c0.58,0.18,0.91,0.79,0.73,1.38
		C102.23,67.33,101.8,67.63,101.33,67.63z"/>
	<path class="st0" d="M92.7,64.99c-0.32,0-0.64-0.14-0.86-0.41l-8.56-10.65c-0.38-0.47-0.31-1.17,0.17-1.55
		c0.48-0.38,1.17-0.3,1.55,0.17l8.56,10.65c0.38,0.47,0.31,1.17-0.17,1.55C93.18,64.91,92.94,64.99,92.7,64.99z"/>
	<path class="st0" d="M62.81,66c-0.48,0-0.92-0.31-1.06-0.79c-0.17-0.58,0.17-1.2,0.75-1.37l15.86-4.59
		c0.58-0.17,1.2,0.17,1.36,0.75c0.17,0.58-0.17,1.2-0.75,1.37l-15.86,4.59C63.02,65.99,62.92,66,62.81,66z"/>
	<circle class="st0" cx="52.34" cy="35.57" r="1.15"/>
	<circle class="st0" cx="63.34" cy="68.2" r="1.1"/>
	<circle class="st2" cx="40.17" cy="52.23" r="1.1"/>
	<circle class="st2" cx="95.48" cy="54.15" r="0.83"/>
	<g>
		<path class="st0" d="M48.41,38.67c-1.04,0-3.03,0.73-3.03,0.73c4.49-4.38-3.55-7.2-3.55-7.2l6.58,1.36c0,0-2.5,2.4,0.73,5.22
			L48.41,38.67z"/>
		<path class="st0" d="M45.39,40.5c-0.37,0-0.73-0.19-0.93-0.51c-0.28-0.44-0.21-1.01,0.16-1.38c0.8-0.78,1.14-1.51,1-2.15
			c-0.34-1.56-3.18-2.89-4.14-3.23c-0.55-0.19-0.85-0.78-0.69-1.33s0.72-0.9,1.28-0.78l6.58,1.36c0.4,0.08,0.72,0.38,0.84,0.77
			c0.11,0.39,0,0.82-0.3,1.1l0,0c0,0-0.61,0.63-0.58,1.48c0.02,0.68,0.45,1.4,1.28,2.11c0.37,0.32,0.48,0.85,0.28,1.29
			c-0.2,0.44-0.67,0.7-1.16,0.63l-0.64-0.09c-0.64,0.03-1.91,0.41-2.58,0.66C45.64,40.48,45.51,40.5,45.39,40.5z"/>
	</g>
	<path class="st3" d="M70.16,65.2c0,0-4.99,2.34-2.38,7.71C67.78,72.91,72.64,70.38,70.16,65.2z"/>
	<path class="st2" d="M47.93,56.34c0,0-4.79-2.72-7.66,2.52C40.27,58.86,45.14,61.36,47.93,56.34z"/>
	<path class="st3" d="M92.66,49.69c0,0-5.19,1.84-3.12,7.44C89.54,57.13,94.61,55.08,92.66,49.69z"/>
	<path class="st2" d="M52.34,69.34c0,0,5.75,2.79,8.69-3.48C61.03,65.86,55.21,63.33,52.34,69.34z"/>
	<path class="st0" d="M94.68,64.94c0,0-6.06-2.04-8.18,4.55C86.51,69.49,92.6,71.26,94.68,64.94z"/>
	<g>
		<path class="st1" d="M68.62,37.31c0,0,10.99,2.78,18.51-1.11"/>
		<path class="st0" d="M77.07,39.38c-4.66,0-8.45-0.94-8.72-1.01c-0.59-0.15-0.95-0.75-0.8-1.34c0.15-0.59,0.75-0.95,1.34-0.8
			c0.11,0.03,10.68,2.63,17.73-1.02c0.54-0.28,1.21-0.07,1.48,0.47c0.28,0.54,0.07,1.2-0.47,1.48
			C84.35,38.88,80.48,39.38,77.07,39.38z"/>
	</g>
	<path class="st0" d="M72.95,42.31c-4.88,0-8.16-0.95-8.39-1.02c-0.58-0.17-0.91-0.79-0.74-1.37c0.17-0.58,0.79-0.91,1.37-0.74
		c0.09,0.03,9.13,2.62,19.49-1.09c0.57-0.21,1.2,0.09,1.41,0.66c0.21,0.57-0.09,1.2-0.66,1.41C80.79,41.82,76.45,42.31,72.95,42.31z
		"/>
</g>
<g>
	<path class="st4" d="M171.29,32.68h-1.28c-0.14,0-0.26-0.04-0.36-0.11c-0.09-0.07-0.16-0.17-0.2-0.28l-1.03-2.7h-5.1l-1.03,2.7
		c-0.04,0.1-0.11,0.19-0.2,0.27s-0.22,0.12-0.36,0.12h-1.27l4.58-11.48h1.67L171.29,32.68z M163.78,28.41h4.18l-1.74-4.52
		c-0.06-0.14-0.12-0.31-0.18-0.5s-0.12-0.4-0.18-0.62c-0.06,0.22-0.12,0.43-0.18,0.62s-0.12,0.36-0.18,0.5L163.78,28.41z"/>
	<path class="st4" d="M182.09,32.68h-1.66v-5.19h-6.06v5.19h-1.66V21.2h1.66v5.09h6.06V21.2h1.66V32.68z"/>
	<path class="st4" d="M195.63,26.93c0,0.86-0.14,1.65-0.41,2.37c-0.27,0.72-0.66,1.34-1.16,1.86c-0.5,0.52-1.09,0.92-1.79,1.21
		c-0.7,0.29-1.47,0.43-2.32,0.43s-1.62-0.14-2.32-0.43c-0.7-0.29-1.29-0.69-1.8-1.21c-0.5-0.52-0.89-1.14-1.16-1.86
		c-0.27-0.72-0.41-1.51-0.41-2.37c0-0.85,0.14-1.64,0.41-2.36c0.28-0.72,0.66-1.34,1.16-1.86c0.5-0.52,1.1-0.92,1.8-1.21
		c0.7-0.29,1.47-0.44,2.32-0.44s1.62,0.15,2.32,0.44c0.7,0.29,1.3,0.69,1.79,1.21c0.5,0.52,0.88,1.14,1.16,1.86
		C195.49,25.29,195.63,26.08,195.63,26.93z M193.94,26.93c0-0.69-0.09-1.31-0.28-1.86s-0.46-1.01-0.8-1.4
		c-0.35-0.38-0.77-0.67-1.26-0.88c-0.49-0.2-1.04-0.3-1.65-0.3s-1.16,0.1-1.65,0.3s-0.91,0.49-1.26,0.88s-0.62,0.85-0.81,1.4
		c-0.19,0.55-0.28,1.17-0.28,1.86c0,0.69,0.09,1.31,0.28,1.86c0.19,0.55,0.46,1.01,0.81,1.39c0.35,0.38,0.77,0.67,1.26,0.87
		c0.49,0.2,1.04,0.3,1.65,0.3s1.16-0.1,1.65-0.3c0.49-0.2,0.91-0.49,1.26-0.87c0.35-0.38,0.62-0.84,0.8-1.39
		S193.94,27.63,193.94,26.93z"/>
	<path class="st4" d="M201.21,28.53v-0.2l2-3.11l0.5,0.23c0.13,0.06,0.2,0.15,0.23,0.26c0.02,0.11,0,0.23-0.08,0.37l-1.24,2.06
		c-0.08,0.13-0.16,0.23-0.24,0.3c0.08,0.07,0.17,0.17,0.24,0.3l1.24,2.06c0.07,0.13,0.1,0.26,0.08,0.37
		c-0.02,0.11-0.1,0.2-0.23,0.26l-0.5,0.23L201.21,28.53z M203.61,28.53v-0.2l2-3.11l0.5,0.23c0.13,0.06,0.2,0.15,0.23,0.26
		c0.02,0.11,0,0.23-0.08,0.37l-1.24,2.06c-0.08,0.13-0.16,0.23-0.24,0.3c0.08,0.07,0.17,0.17,0.24,0.3l1.24,2.06
		c0.08,0.13,0.1,0.26,0.08,0.37c-0.02,0.11-0.1,0.2-0.23,0.26l-0.5,0.23L203.61,28.53z"/>
	<path class="st4" d="M208.78,32.68V21.2h1.66v10.18h5.62V21.2h1.66v10.18h1.73v3.59c0,0.14-0.05,0.26-0.15,0.35
		c-0.1,0.09-0.23,0.14-0.38,0.14h-0.98v-2.78H208.78z"/>
	<path class="st4" d="M228.41,21.2v1.34h-5.45v3.7h4.39v1.3h-4.39v3.8h5.46l-0.01,1.34h-7.11V21.2H228.41z"/>
	<path class="st4" d="M239.9,32.68h-1.66v-5.19h-6.06v5.19h-1.66V21.2h1.66v5.09h6.06V21.2h1.66V32.68z"/>
	<path class="st4" d="M250.58,21.2v1.38h-3.67v10.1h-1.65v-10.1h-3.68V21.2H250.58z"/>
	<path class="st4" d="M253.89,28.43v4.25h-1.65V21.2h3.45c0.73,0,1.37,0.09,1.91,0.26c0.54,0.17,0.99,0.41,1.34,0.72
		c0.36,0.31,0.62,0.69,0.8,1.13s0.26,0.93,0.26,1.47s-0.09,1.03-0.28,1.48c-0.19,0.45-0.46,0.83-0.82,1.16
		c-0.36,0.33-0.81,0.58-1.35,0.76c-0.54,0.18-1.16,0.27-1.86,0.27H253.89z M253.89,27.12h1.8c0.43,0,0.81-0.06,1.15-0.17
		s0.61-0.27,0.84-0.48c0.22-0.21,0.39-0.45,0.51-0.74s0.17-0.6,0.17-0.95c0-0.36-0.05-0.68-0.16-0.96c-0.11-0.28-0.27-0.52-0.5-0.72
		c-0.22-0.2-0.5-0.35-0.83-0.45c-0.33-0.1-0.72-0.16-1.17-0.16h-1.8V27.12z"/>
	<path class="st4" d="M267.61,28.43v4.25h-1.65V21.2h3.45c0.73,0,1.37,0.09,1.91,0.26c0.54,0.17,0.99,0.41,1.34,0.72
		c0.35,0.31,0.62,0.69,0.79,1.13s0.27,0.93,0.27,1.47s-0.09,1.03-0.28,1.48c-0.19,0.45-0.46,0.83-0.82,1.16
		c-0.36,0.33-0.81,0.58-1.35,0.76c-0.54,0.18-1.16,0.27-1.86,0.27H267.61z M267.61,27.12h1.8c0.43,0,0.81-0.06,1.15-0.17
		c0.33-0.11,0.61-0.27,0.84-0.48c0.22-0.21,0.39-0.45,0.51-0.74c0.11-0.29,0.17-0.6,0.17-0.95c0-0.36-0.05-0.68-0.16-0.96
		c-0.11-0.28-0.28-0.52-0.5-0.72c-0.22-0.2-0.5-0.35-0.83-0.45c-0.33-0.1-0.72-0.16-1.17-0.16h-1.8V27.12z"/>
	<path class="st4" d="M284.24,32.68h-1.28c-0.14,0-0.26-0.04-0.36-0.11c-0.09-0.07-0.16-0.17-0.21-0.28l-1.03-2.7h-5.1l-1.03,2.7
		c-0.04,0.1-0.11,0.19-0.2,0.27c-0.1,0.08-0.22,0.12-0.36,0.12h-1.27l4.58-11.48h1.67L284.24,32.68z M276.72,28.41h4.18l-1.73-4.52
		c-0.06-0.14-0.12-0.31-0.18-0.5c-0.06-0.19-0.12-0.4-0.18-0.62c-0.06,0.22-0.12,0.43-0.18,0.62s-0.12,0.36-0.18,0.5L276.72,28.41z"
		/>
	<path class="st4" d="M292.37,24.03c0,0.57-0.14,1.07-0.42,1.51c-0.28,0.44-0.68,0.78-1.2,1.03c0.29,0.12,0.55,0.27,0.79,0.45
		s0.44,0.38,0.61,0.6c0.17,0.22,0.3,0.46,0.39,0.72s0.14,0.54,0.14,0.83c0,0.51-0.09,0.98-0.28,1.42c-0.19,0.44-0.46,0.82-0.82,1.15
		s-0.8,0.59-1.32,0.77c-0.52,0.19-1.12,0.28-1.79,0.28c-0.82,0-1.56-0.14-2.23-0.41c-0.67-0.27-1.23-0.64-1.7-1.1l0.48-0.78
		c0.04-0.06,0.1-0.12,0.16-0.16s0.14-0.06,0.22-0.06c0.08,0,0.16,0.03,0.26,0.08c0.1,0.06,0.21,0.13,0.33,0.21
		c0.12,0.08,0.26,0.17,0.42,0.27c0.16,0.1,0.34,0.19,0.54,0.27c0.21,0.08,0.44,0.15,0.7,0.21c0.26,0.06,0.55,0.08,0.88,0.08
		c0.83,0,1.47-0.19,1.92-0.57c0.45-0.38,0.68-0.91,0.68-1.6c0-0.29-0.06-0.56-0.17-0.8s-0.28-0.45-0.49-0.62s-0.47-0.31-0.78-0.4
		c-0.31-0.09-0.66-0.14-1.04-0.14h-1.58l-0.01-1.36h1.5c0.33,0,0.63-0.04,0.91-0.12s0.51-0.19,0.71-0.34
		c0.2-0.15,0.35-0.33,0.46-0.55c0.11-0.22,0.16-0.47,0.16-0.75c0-0.26-0.05-0.49-0.16-0.7c-0.1-0.21-0.25-0.39-0.45-0.54
		c-0.2-0.15-0.44-0.27-0.73-0.35c-0.29-0.08-0.62-0.12-0.98-0.12c-0.43,0-0.79,0.05-1.09,0.14c-0.3,0.09-0.55,0.19-0.76,0.3
		c-0.21,0.11-0.38,0.21-0.51,0.3s-0.25,0.14-0.35,0.14c-0.09,0-0.16-0.02-0.22-0.06c-0.05-0.04-0.11-0.1-0.16-0.2L285,22.27
		c0.44-0.38,0.95-0.68,1.53-0.88c0.58-0.21,1.23-0.31,1.96-0.31c0.59,0,1.13,0.07,1.61,0.22c0.48,0.15,0.88,0.35,1.22,0.61
		s0.6,0.57,0.78,0.93C292.27,23.2,292.37,23.6,292.37,24.03z"/>
	<path class="st4" d="M294.89,32.68V21.2h3.71c0.71,0,1.33,0.07,1.84,0.21s0.93,0.34,1.26,0.6c0.33,0.26,0.57,0.57,0.73,0.95
		c0.16,0.37,0.24,0.79,0.24,1.26c0,0.28-0.04,0.55-0.13,0.8s-0.22,0.5-0.39,0.72c-0.18,0.22-0.4,0.42-0.66,0.6
		c-0.27,0.18-0.58,0.32-0.94,0.44c0.83,0.17,1.45,0.47,1.88,0.91s0.63,1.01,0.63,1.72c0,0.49-0.09,0.94-0.27,1.34
		c-0.18,0.4-0.45,0.75-0.79,1.04c-0.35,0.29-0.77,0.51-1.28,0.67c-0.5,0.16-1.08,0.24-1.72,0.24H294.89z M296.54,26.31h1.99
		c0.43,0,0.8-0.04,1.11-0.14c0.32-0.09,0.58-0.22,0.78-0.38c0.21-0.17,0.36-0.37,0.46-0.6c0.1-0.23,0.15-0.5,0.15-0.78
		c0-0.66-0.2-1.15-0.6-1.45s-1.01-0.46-1.84-0.46h-2.06V26.31z M296.54,27.48v3.89h2.43c0.44,0,0.81-0.05,1.12-0.15
		c0.31-0.1,0.56-0.24,0.76-0.42s0.34-0.39,0.44-0.64c0.09-0.25,0.14-0.51,0.14-0.81c0-0.58-0.2-1.03-0.61-1.37
		c-0.41-0.34-1.02-0.5-1.85-0.5H296.54z"/>
	<path class="st4" d="M312.67,21.72c0.08-0.13,0.18-0.25,0.31-0.36s0.27-0.16,0.43-0.16h1.23v11.48h-1.66v-7.98
		c0-0.23,0.01-0.48,0.02-0.74c0.01-0.26,0.04-0.53,0.08-0.83c-0.1,0.26-0.2,0.49-0.3,0.7c-0.11,0.21-0.21,0.41-0.31,0.58l-5.22,7.75
		c-0.07,0.13-0.18,0.25-0.3,0.36c-0.13,0.11-0.27,0.16-0.43,0.16h-1.23V21.2h1.66v7.98c0,0.23,0,0.48-0.02,0.73
		c-0.01,0.25-0.04,0.52-0.07,0.81c0.09-0.25,0.19-0.48,0.3-0.69c0.11-0.21,0.21-0.4,0.32-0.56L312.67,21.72z"/>
	<path class="st4" d="M325.32,21.2v1.38h-3.67v10.1H320v-10.1h-3.68V21.2H325.32z"/>
	<path class="st4" d="M334.38,21.72c0.08-0.13,0.18-0.25,0.31-0.36s0.27-0.16,0.43-0.16h1.23v11.48h-1.66v-7.98
		c0-0.23,0.01-0.48,0.02-0.74c0.01-0.26,0.04-0.53,0.08-0.83c-0.1,0.26-0.2,0.49-0.3,0.7c-0.11,0.21-0.21,0.41-0.31,0.58l-5.22,7.75
		c-0.07,0.13-0.18,0.25-0.3,0.36c-0.13,0.11-0.27,0.16-0.43,0.16h-1.23V21.2h1.66v7.98c0,0.23,0,0.48-0.02,0.73
		c-0.01,0.25-0.04,0.52-0.07,0.81c0.09-0.25,0.19-0.48,0.3-0.69c0.11-0.21,0.21-0.4,0.32-0.56L334.38,21.72z"/>
	<path class="st4" d="M345.39,32.68v-4.9h-1.58c-0.13,0.01-0.25,0.02-0.37,0.05c-0.12,0.03-0.23,0.07-0.34,0.14
		c-0.11,0.06-0.22,0.15-0.33,0.26c-0.11,0.11-0.22,0.24-0.33,0.4l-2.41,3.48c-0.11,0.18-0.25,0.32-0.42,0.42
		c-0.17,0.11-0.38,0.16-0.62,0.16h-1.25l2.92-4.16c0.31-0.47,0.69-0.81,1.13-1.02c-0.45-0.09-0.85-0.23-1.18-0.41
		s-0.62-0.41-0.84-0.67c-0.22-0.26-0.39-0.55-0.5-0.88c-0.11-0.33-0.16-0.68-0.16-1.06c0-0.49,0.09-0.94,0.27-1.34
		s0.45-0.75,0.79-1.04c0.35-0.29,0.77-0.51,1.28-0.67c0.5-0.16,1.08-0.24,1.72-0.24h3.87v11.48H345.39z M340.74,24.47
		c0,0.31,0.04,0.59,0.13,0.84c0.09,0.25,0.23,0.45,0.42,0.62c0.19,0.17,0.45,0.3,0.75,0.39c0.31,0.09,0.68,0.14,1.12,0.14h2.22
		v-3.95h-2.22c-0.44,0-0.81,0.05-1.12,0.14c-0.31,0.1-0.56,0.23-0.75,0.4c-0.2,0.17-0.34,0.38-0.43,0.62
		C340.79,23.91,340.74,24.18,340.74,24.47z"/>
	<path class="st4" d="M169.69,37.2v1.38h-3.67v10.1h-1.65v-10.1h-3.68V37.2H169.69z"/>
	<path class="st4" d="M172.99,47.37c0.13-0.03,0.26-0.08,0.38-0.15c0.13-0.07,0.24-0.17,0.35-0.29s0.21-0.29,0.31-0.48l0.54-1.13
		l-4.61-8.13h1.54c0.14,0,0.26,0.03,0.34,0.1s0.16,0.16,0.22,0.28l2.74,5.02c0.21,0.4,0.38,0.8,0.5,1.19c0.06-0.2,0.13-0.4,0.2-0.6
		c0.08-0.19,0.16-0.39,0.26-0.6l2.33-5.02c0.05-0.1,0.12-0.18,0.21-0.26c0.09-0.08,0.21-0.12,0.35-0.12h1.37l-4.66,9.97
		c-0.15,0.32-0.31,0.58-0.48,0.79c-0.17,0.21-0.35,0.37-0.55,0.5c-0.2,0.12-0.41,0.21-0.63,0.26s-0.47,0.08-0.73,0.08
		c-0.3,0-0.54-0.03-0.7-0.08c-0.16-0.06-0.24-0.14-0.24-0.24v-1.05h0.57C172.72,47.41,172.86,47.4,172.99,47.37z"/>
	<path class="st4" d="M183.06,44.43v4.25h-1.65V37.2h3.45c0.73,0,1.37,0.09,1.91,0.26c0.54,0.17,0.99,0.41,1.34,0.72
		s0.62,0.69,0.8,1.13s0.26,0.93,0.26,1.47s-0.09,1.03-0.28,1.48c-0.19,0.45-0.46,0.83-0.82,1.16s-0.81,0.58-1.35,0.76
		s-1.16,0.27-1.86,0.27H183.06z M183.06,43.12h1.8c0.43,0,0.81-0.06,1.15-0.17c0.33-0.11,0.61-0.27,0.84-0.48
		c0.22-0.21,0.39-0.45,0.51-0.74c0.11-0.29,0.17-0.6,0.17-0.95c0-0.36-0.05-0.68-0.16-0.96c-0.11-0.28-0.27-0.52-0.5-0.72
		c-0.22-0.2-0.5-0.35-0.83-0.45s-0.72-0.16-1.17-0.16h-1.8V43.12z"/>
	<path class="st4" d="M198.47,37.72c0.08-0.13,0.18-0.25,0.31-0.36c0.13-0.11,0.27-0.16,0.43-0.16h1.23v11.48h-1.66v-7.98
		c0-0.23,0.01-0.48,0.02-0.74c0.01-0.26,0.04-0.53,0.08-0.83c-0.1,0.26-0.2,0.49-0.3,0.7c-0.11,0.21-0.21,0.41-0.31,0.58l-5.22,7.75
		c-0.08,0.13-0.18,0.25-0.3,0.36s-0.27,0.16-0.43,0.16h-1.23V37.2h1.66v7.98c0,0.23,0,0.48-0.02,0.73s-0.04,0.52-0.07,0.81
		c0.09-0.25,0.19-0.48,0.3-0.69c0.11-0.21,0.21-0.4,0.32-0.56L198.47,37.72z"/>
	<path class="st4" d="M211.34,46.25c0.09,0,0.17,0.03,0.24,0.1l0.66,0.72c-0.47,0.55-1.04,0.98-1.72,1.28
		c-0.67,0.3-1.48,0.46-2.43,0.46c-0.83,0-1.58-0.14-2.26-0.43c-0.67-0.29-1.25-0.69-1.73-1.21c-0.48-0.52-0.84-1.14-1.1-1.86
		c-0.26-0.72-0.39-1.51-0.39-2.38c0-0.86,0.14-1.66,0.41-2.38c0.27-0.72,0.66-1.34,1.15-1.85c0.5-0.51,1.09-0.92,1.78-1.2
		c0.69-0.29,1.45-0.43,2.28-0.43c0.82,0,1.54,0.13,2.17,0.4c0.63,0.27,1.18,0.62,1.65,1.06l-0.54,0.77
		c-0.04,0.05-0.08,0.1-0.13,0.13s-0.12,0.05-0.21,0.05c-0.1,0-0.22-0.05-0.36-0.15c-0.14-0.1-0.31-0.21-0.54-0.34
		c-0.22-0.13-0.5-0.24-0.83-0.34c-0.33-0.1-0.74-0.15-1.22-0.15c-0.58,0-1.11,0.1-1.59,0.3c-0.48,0.2-0.9,0.49-1.24,0.87
		c-0.35,0.38-0.62,0.84-0.81,1.39s-0.29,1.17-0.29,1.86c0,0.7,0.1,1.33,0.3,1.88c0.2,0.55,0.47,1.02,0.82,1.4
		c0.35,0.38,0.76,0.67,1.24,0.87c0.47,0.2,0.98,0.3,1.53,0.3c0.34,0,0.64-0.02,0.9-0.06c0.27-0.04,0.51-0.1,0.74-0.18
		s0.44-0.18,0.64-0.31s0.39-0.28,0.59-0.46c0.04-0.04,0.09-0.07,0.13-0.09C211.24,46.26,211.29,46.25,211.34,46.25z"/>
	<path class="st4" d="M221.79,37.2v1.38h-3.67v10.1h-1.65v-10.1h-3.68V37.2H221.79z"/>
	<path class="st4" d="M230.85,37.72c0.08-0.13,0.18-0.25,0.31-0.36s0.27-0.16,0.43-0.16h1.23v11.48h-1.66v-7.98
		c0-0.23,0.01-0.48,0.02-0.74c0.01-0.26,0.04-0.53,0.08-0.83c-0.1,0.26-0.2,0.49-0.3,0.7c-0.11,0.21-0.21,0.41-0.31,0.58l-5.22,7.75
		c-0.07,0.13-0.18,0.25-0.3,0.36c-0.13,0.11-0.27,0.16-0.43,0.16h-1.23V37.2h1.66v7.98c0,0.23,0,0.48-0.02,0.73
		c-0.01,0.25-0.04,0.52-0.07,0.81c0.09-0.25,0.19-0.48,0.3-0.69c0.11-0.21,0.21-0.4,0.32-0.56L230.85,37.72z"/>
	<path class="st4" d="M243.45,48.68h-1.65v-4.9c-0.61,0.16-1.21,0.29-1.79,0.38s-1.12,0.13-1.62,0.12s-0.97-0.08-1.38-0.2
		c-0.42-0.12-0.78-0.31-1.08-0.58s-0.53-0.6-0.7-1.02c-0.17-0.42-0.25-0.93-0.25-1.53V37.2h1.66v3.76c0,0.52,0.1,0.94,0.3,1.25
		c0.2,0.32,0.52,0.54,0.94,0.67c0.42,0.13,0.96,0.17,1.6,0.12c0.65-0.05,1.42-0.19,2.31-0.42V37.2h1.65V48.68z"/>
	<path class="st4" d="M253.41,37.2v1.34h-5.45v3.7h4.39v1.3h-4.39v3.8h5.46l-0.01,1.34h-7.11V37.2H253.41z"/>
	<path class="st4" d="M263.33,46.25c0.09,0,0.17,0.03,0.24,0.1l0.66,0.72c-0.47,0.55-1.04,0.98-1.72,1.28
		c-0.67,0.3-1.48,0.46-2.43,0.46c-0.83,0-1.59-0.14-2.26-0.43c-0.68-0.29-1.25-0.69-1.73-1.21c-0.48-0.52-0.85-1.14-1.1-1.86
		c-0.26-0.72-0.39-1.51-0.39-2.38c0-0.86,0.14-1.66,0.41-2.38c0.27-0.72,0.66-1.34,1.15-1.85c0.5-0.51,1.09-0.92,1.78-1.2
		c0.69-0.29,1.45-0.43,2.29-0.43c0.81,0,1.54,0.13,2.17,0.4c0.63,0.27,1.18,0.62,1.65,1.06l-0.54,0.77
		c-0.04,0.05-0.08,0.1-0.13,0.13s-0.12,0.05-0.21,0.05c-0.1,0-0.22-0.05-0.36-0.15c-0.14-0.1-0.32-0.21-0.54-0.34
		c-0.22-0.13-0.5-0.24-0.83-0.34c-0.33-0.1-0.74-0.15-1.22-0.15c-0.57,0-1.1,0.1-1.59,0.3c-0.48,0.2-0.9,0.49-1.24,0.87
		c-0.35,0.38-0.62,0.84-0.81,1.39c-0.19,0.55-0.29,1.17-0.29,1.86c0,0.7,0.1,1.33,0.3,1.88c0.2,0.55,0.47,1.02,0.82,1.4
		c0.35,0.38,0.76,0.67,1.24,0.87s0.98,0.3,1.53,0.3c0.34,0,0.64-0.02,0.9-0.06c0.27-0.04,0.51-0.1,0.74-0.18s0.44-0.18,0.63-0.31
		s0.39-0.28,0.59-0.46c0.04-0.04,0.09-0.07,0.13-0.09S263.27,46.25,263.33,46.25z"/>
	<path class="st4" d="M267.61,42.18h1.18c0.12,0,0.23-0.01,0.32-0.02c0.1-0.02,0.19-0.04,0.28-0.08s0.17-0.1,0.25-0.17
		c0.08-0.07,0.16-0.16,0.24-0.27l2.92-3.98c0.08-0.14,0.19-0.25,0.31-0.34c0.12-0.08,0.26-0.13,0.42-0.13h1.39l-3.41,4.7
		c-0.26,0.37-0.59,0.63-1.02,0.77c0.29,0.07,0.53,0.2,0.73,0.37s0.39,0.41,0.58,0.7l3.42,4.94h-1.48c-0.17,0-0.31-0.04-0.42-0.13
		c-0.11-0.08-0.22-0.21-0.31-0.38l-2.94-4.14c-0.14-0.21-0.29-0.36-0.45-0.44c-0.16-0.08-0.38-0.12-0.65-0.12h-1.36v5.22h-1.65V37.2
		h1.65V42.18z"/>
	<path class="st4" d="M284.16,37.72c0.08-0.13,0.18-0.25,0.31-0.36c0.13-0.11,0.27-0.16,0.43-0.16h1.23v11.48h-1.66v-7.98
		c0-0.23,0.01-0.48,0.02-0.74c0.01-0.26,0.04-0.53,0.08-0.83c-0.1,0.26-0.2,0.49-0.3,0.7c-0.11,0.21-0.21,0.41-0.31,0.58l-5.22,7.75
		c-0.08,0.13-0.18,0.25-0.3,0.36c-0.13,0.11-0.27,0.16-0.43,0.16h-1.23V37.2h1.66v7.98c0,0.23-0.01,0.48-0.02,0.73
		c-0.01,0.25-0.04,0.52-0.07,0.81c0.09-0.25,0.19-0.48,0.3-0.69c0.11-0.21,0.21-0.4,0.32-0.56L284.16,37.72z"/>
	<path class="st4" d="M291.63,42.77l-3.77-5.58h1.65c0.12,0,0.21,0.02,0.26,0.06c0.06,0.04,0.11,0.09,0.15,0.17l2.93,4.54
		c0.03-0.06,0.05-0.13,0.08-0.19c0.02-0.06,0.06-0.13,0.1-0.2l2.75-4.13c0.1-0.17,0.23-0.25,0.38-0.25h1.58l-3.79,5.51l3.91,5.97
		h-1.64c-0.12,0-0.22-0.03-0.29-0.1c-0.07-0.06-0.13-0.14-0.17-0.22l-3.01-4.74c-0.02,0.06-0.04,0.12-0.06,0.18
		s-0.05,0.11-0.08,0.16l-2.93,4.41c-0.05,0.07-0.11,0.15-0.18,0.21c-0.07,0.07-0.15,0.1-0.26,0.1h-1.54L291.63,42.77z"/>
	<path class="st4" d="M305.14,42.18h1.18c0.12,0,0.22-0.01,0.32-0.02c0.1-0.02,0.19-0.04,0.28-0.08s0.17-0.1,0.25-0.17
		c0.08-0.07,0.16-0.16,0.24-0.27l2.92-3.98c0.09-0.14,0.19-0.25,0.31-0.34c0.12-0.08,0.26-0.13,0.42-0.13h1.39l-3.41,4.7
		c-0.26,0.37-0.6,0.63-1.02,0.77c0.29,0.07,0.53,0.2,0.73,0.37s0.39,0.41,0.58,0.7l3.42,4.94h-1.48c-0.17,0-0.31-0.04-0.42-0.13
		c-0.11-0.08-0.21-0.21-0.31-0.38l-2.94-4.14c-0.14-0.21-0.29-0.36-0.45-0.44c-0.16-0.08-0.38-0.12-0.66-0.12h-1.36v5.22h-1.65V37.2
		h1.65V42.18z"/>
	<path class="st4" d="M323.21,37.2v11.48h-1.65V38.49h-3.69c-0.07,1.47-0.18,2.74-0.3,3.82c-0.13,1.08-0.28,2-0.46,2.76
		c-0.18,0.76-0.38,1.39-0.61,1.87c-0.23,0.48-0.48,0.86-0.75,1.13s-0.57,0.46-0.88,0.56c-0.31,0.1-0.64,0.15-0.99,0.15
		c-0.3,0-0.54-0.03-0.7-0.08c-0.16-0.06-0.24-0.14-0.24-0.24v-1.05h0.57c0.21,0,0.41-0.04,0.62-0.12s0.4-0.24,0.6-0.49
		c0.19-0.24,0.38-0.6,0.54-1.06c0.17-0.46,0.33-1.07,0.47-1.82c0.14-0.76,0.26-1.69,0.36-2.78c0.1-1.1,0.17-2.41,0.23-3.94H323.21z"
		/>
	<path class="st4" d="M335.48,48.68h-1.28c-0.14,0-0.26-0.04-0.36-0.11c-0.09-0.07-0.16-0.17-0.21-0.28l-1.03-2.7h-5.1l-1.03,2.7
		c-0.04,0.1-0.11,0.19-0.2,0.27c-0.1,0.08-0.22,0.12-0.36,0.12h-1.27l4.58-11.48h1.67L335.48,48.68z M327.96,44.41h4.18l-1.73-4.52
		c-0.06-0.14-0.12-0.31-0.18-0.5c-0.06-0.19-0.12-0.4-0.18-0.62c-0.06,0.22-0.12,0.43-0.18,0.62s-0.12,0.36-0.18,0.5L327.96,44.41z"
		/>
	<path class="st4" d="M344.66,46.25c0.09,0,0.17,0.03,0.24,0.1l0.66,0.72c-0.47,0.55-1.04,0.98-1.72,1.28
		c-0.67,0.3-1.48,0.46-2.43,0.46c-0.83,0-1.59-0.14-2.26-0.43c-0.68-0.29-1.25-0.69-1.73-1.21c-0.48-0.52-0.85-1.14-1.1-1.86
		c-0.26-0.72-0.39-1.51-0.39-2.38c0-0.86,0.14-1.66,0.41-2.38c0.27-0.72,0.66-1.34,1.15-1.85c0.5-0.51,1.09-0.92,1.78-1.2
		c0.69-0.29,1.45-0.43,2.29-0.43c0.81,0,1.54,0.13,2.17,0.4c0.63,0.27,1.18,0.62,1.65,1.06l-0.54,0.77
		c-0.04,0.05-0.08,0.1-0.13,0.13s-0.12,0.05-0.21,0.05c-0.1,0-0.22-0.05-0.36-0.15c-0.14-0.1-0.32-0.21-0.54-0.34
		c-0.22-0.13-0.5-0.24-0.83-0.34c-0.33-0.1-0.74-0.15-1.22-0.15c-0.57,0-1.1,0.1-1.59,0.3c-0.48,0.2-0.9,0.49-1.24,0.87
		c-0.35,0.38-0.62,0.84-0.81,1.39c-0.19,0.55-0.29,1.17-0.29,1.86c0,0.7,0.1,1.33,0.3,1.88c0.2,0.55,0.47,1.02,0.82,1.4
		c0.35,0.38,0.76,0.67,1.24,0.87s0.98,0.3,1.53,0.3c0.34,0,0.64-0.02,0.9-0.06c0.27-0.04,0.51-0.1,0.74-0.18s0.44-0.18,0.63-0.31
		s0.39-0.28,0.59-0.46c0.04-0.04,0.09-0.07,0.13-0.09S344.61,46.25,344.66,46.25z"/>
	<path class="st4" d="M355.11,37.2v1.38h-3.67v10.1h-1.65v-10.1h-3.68V37.2H355.11z"/>
	<path class="st4" d="M363.88,37.2v1.34h-5.45v3.7h4.39v1.3h-4.39v3.8h5.46l-0.01,1.34h-7.1V37.2H363.88z"/>
	<path class="st4" d="M367.65,44.43v4.25H366V37.2h3.45c0.73,0,1.37,0.09,1.91,0.26c0.54,0.17,0.99,0.41,1.34,0.72
		c0.35,0.31,0.62,0.69,0.79,1.13s0.27,0.93,0.27,1.47s-0.09,1.03-0.28,1.48c-0.19,0.45-0.46,0.83-0.82,1.16
		c-0.36,0.33-0.81,0.58-1.35,0.76c-0.54,0.18-1.16,0.27-1.86,0.27H367.65z M367.65,43.12h1.8c0.43,0,0.81-0.06,1.15-0.17
		c0.33-0.11,0.61-0.27,0.84-0.48c0.22-0.21,0.39-0.45,0.51-0.74c0.11-0.29,0.17-0.6,0.17-0.95c0-0.36-0.05-0.68-0.16-0.96
		c-0.11-0.28-0.28-0.52-0.5-0.72c-0.22-0.2-0.5-0.35-0.83-0.45c-0.33-0.1-0.72-0.16-1.17-0.16h-1.8V43.12z"/>
	<path class="st4" d="M386.32,42.93c0,0.86-0.14,1.65-0.41,2.37c-0.27,0.72-0.66,1.34-1.15,1.86c-0.5,0.52-1.09,0.92-1.79,1.21
		s-1.47,0.43-2.32,0.43s-1.62-0.14-2.32-0.43c-0.7-0.29-1.29-0.69-1.79-1.21c-0.5-0.52-0.89-1.14-1.16-1.86s-0.41-1.51-0.41-2.37
		c0-0.85,0.14-1.64,0.41-2.36s0.66-1.34,1.16-1.86c0.5-0.52,1.1-0.92,1.79-1.21c0.7-0.29,1.47-0.44,2.32-0.44s1.62,0.15,2.32,0.44
		s1.3,0.69,1.79,1.21c0.5,0.52,0.88,1.14,1.15,1.86C386.19,41.29,386.32,42.08,386.32,42.93z M384.64,42.93
		c0-0.69-0.09-1.31-0.28-1.86c-0.19-0.55-0.46-1.01-0.8-1.4s-0.77-0.67-1.26-0.88s-1.04-0.3-1.65-0.3c-0.61,0-1.16,0.1-1.65,0.3
		c-0.49,0.2-0.91,0.49-1.26,0.88s-0.62,0.85-0.81,1.4c-0.19,0.55-0.29,1.17-0.29,1.86c0,0.69,0.1,1.31,0.29,1.86
		c0.19,0.55,0.46,1.01,0.81,1.39s0.77,0.67,1.26,0.87c0.49,0.2,1.04,0.3,1.65,0.3c0.61,0,1.16-0.1,1.65-0.3
		c0.49-0.2,0.91-0.49,1.26-0.87s0.62-0.84,0.8-1.39C384.54,44.25,384.64,43.63,384.64,42.93z"/>
	<path class="st4" d="M388.48,48.68V37.2h3.71c0.71,0,1.33,0.07,1.84,0.21s0.93,0.34,1.26,0.6c0.33,0.26,0.57,0.57,0.73,0.95
		c0.16,0.37,0.24,0.79,0.24,1.26c0,0.28-0.04,0.55-0.13,0.8s-0.22,0.5-0.39,0.72c-0.18,0.22-0.4,0.42-0.66,0.6
		c-0.27,0.18-0.58,0.32-0.94,0.44c0.83,0.17,1.45,0.47,1.88,0.91s0.63,1.01,0.63,1.72c0,0.49-0.09,0.94-0.27,1.34
		c-0.18,0.4-0.45,0.75-0.79,1.04c-0.35,0.29-0.77,0.51-1.28,0.67s-1.08,0.24-1.72,0.24H388.48z M390.13,42.31h1.99
		c0.43,0,0.8-0.04,1.11-0.14c0.32-0.09,0.58-0.22,0.78-0.38c0.21-0.17,0.36-0.37,0.46-0.6c0.1-0.23,0.15-0.5,0.15-0.78
		c0-0.66-0.2-1.15-0.6-1.45s-1.01-0.46-1.84-0.46h-2.06V42.31z M390.13,43.48v3.89h2.43c0.44,0,0.81-0.05,1.12-0.15
		c0.31-0.1,0.56-0.24,0.76-0.42c0.2-0.18,0.34-0.39,0.44-0.64s0.14-0.51,0.14-0.81c0-0.58-0.2-1.03-0.61-1.37
		c-0.41-0.34-1.02-0.5-1.85-0.5H390.13z"/>
	<path class="st4" d="M163.53,58.18h1.18c0.12,0,0.23-0.01,0.32-0.02s0.19-0.04,0.28-0.08s0.17-0.1,0.25-0.17
		c0.08-0.07,0.16-0.16,0.24-0.27l2.92-3.98c0.08-0.14,0.19-0.25,0.31-0.34s0.26-0.13,0.42-0.13h1.39l-3.41,4.7
		c-0.26,0.37-0.59,0.63-1.02,0.77c0.29,0.08,0.53,0.2,0.73,0.37s0.39,0.41,0.58,0.7l3.42,4.94h-1.48c-0.17,0-0.31-0.04-0.42-0.13
		c-0.11-0.08-0.22-0.21-0.31-0.38L166,60.02c-0.14-0.21-0.29-0.36-0.45-0.44s-0.38-0.12-0.66-0.12h-1.36v5.22h-1.65V53.2h1.65V58.18
		z"/>
	<path class="st4" d="M174.31,63.37c0.13-0.03,0.26-0.08,0.38-0.15c0.13-0.07,0.24-0.17,0.35-0.29s0.21-0.29,0.31-0.48l0.54-1.13
		l-4.61-8.13h1.54c0.14,0,0.26,0.04,0.34,0.1c0.08,0.07,0.16,0.16,0.22,0.28l2.74,5.02c0.21,0.4,0.38,0.8,0.5,1.19
		c0.06-0.2,0.13-0.4,0.2-0.6c0.08-0.19,0.16-0.39,0.26-0.6l2.33-5.02c0.05-0.1,0.12-0.18,0.21-0.26c0.09-0.08,0.21-0.12,0.35-0.12
		h1.37l-4.66,9.97c-0.15,0.32-0.31,0.58-0.48,0.79c-0.17,0.21-0.35,0.37-0.55,0.5c-0.2,0.12-0.41,0.21-0.63,0.26
		s-0.47,0.08-0.73,0.08c-0.3,0-0.54-0.03-0.7-0.08c-0.16-0.06-0.24-0.14-0.24-0.24v-1.05h0.57
		C174.04,63.41,174.18,63.4,174.31,63.37z"/>
	<path class="st4" d="M184.38,60.43v4.25h-1.65V53.2h3.45c0.73,0,1.37,0.09,1.91,0.26c0.54,0.17,0.99,0.41,1.34,0.72
		c0.35,0.31,0.62,0.69,0.8,1.13c0.18,0.44,0.26,0.93,0.26,1.47s-0.09,1.03-0.28,1.48c-0.19,0.45-0.46,0.83-0.82,1.16
		s-0.81,0.58-1.35,0.76s-1.16,0.27-1.86,0.27H184.38z M184.38,59.12h1.8c0.43,0,0.81-0.06,1.15-0.17c0.33-0.12,0.61-0.28,0.84-0.48
		c0.22-0.21,0.39-0.45,0.51-0.74c0.11-0.29,0.17-0.6,0.17-0.95c0-0.36-0.05-0.68-0.16-0.96s-0.27-0.52-0.5-0.72
		c-0.22-0.2-0.5-0.35-0.83-0.45s-0.72-0.16-1.17-0.16h-1.8V59.12z"/>
	<path class="st4" d="M200.42,62.25c0.09,0,0.17,0.03,0.24,0.1l0.66,0.72c-0.47,0.55-1.04,0.98-1.72,1.28
		c-0.67,0.3-1.48,0.46-2.43,0.46c-0.83,0-1.58-0.14-2.26-0.43c-0.67-0.29-1.25-0.69-1.73-1.21c-0.48-0.52-0.84-1.14-1.1-1.86
		c-0.26-0.72-0.39-1.51-0.39-2.38c0-0.86,0.14-1.66,0.41-2.38c0.27-0.72,0.66-1.34,1.15-1.85c0.5-0.51,1.09-0.92,1.78-1.2
		c0.69-0.29,1.45-0.43,2.28-0.43c0.82,0,1.54,0.13,2.17,0.4c0.63,0.27,1.18,0.62,1.65,1.06l-0.54,0.77
		c-0.04,0.05-0.08,0.1-0.13,0.13c-0.05,0.03-0.12,0.05-0.21,0.05c-0.1,0-0.22-0.05-0.36-0.15c-0.14-0.1-0.32-0.21-0.54-0.34
		c-0.22-0.13-0.5-0.24-0.83-0.34c-0.33-0.1-0.74-0.15-1.22-0.15c-0.58,0-1.1,0.1-1.59,0.3c-0.48,0.2-0.9,0.49-1.24,0.87
		s-0.62,0.84-0.81,1.39s-0.29,1.17-0.29,1.86c0,0.7,0.1,1.33,0.3,1.88c0.2,0.55,0.47,1.02,0.82,1.4s0.76,0.67,1.24,0.87
		s0.98,0.3,1.53,0.3c0.34,0,0.64-0.02,0.9-0.06s0.51-0.1,0.74-0.18s0.44-0.18,0.64-0.31s0.39-0.28,0.59-0.46
		c0.04-0.04,0.09-0.07,0.13-0.09C200.32,62.26,200.37,62.25,200.42,62.25z"/>
	<path class="st4" d="M204.71,58.18h1.18c0.12,0,0.23-0.01,0.32-0.02s0.19-0.04,0.28-0.08s0.17-0.1,0.25-0.17
		c0.08-0.07,0.16-0.16,0.24-0.27l2.92-3.98c0.09-0.14,0.19-0.25,0.31-0.34c0.12-0.08,0.26-0.13,0.42-0.13h1.39l-3.41,4.7
		c-0.26,0.37-0.6,0.63-1.02,0.77c0.29,0.08,0.53,0.2,0.73,0.37s0.39,0.41,0.58,0.7l3.42,4.94h-1.48c-0.17,0-0.31-0.04-0.42-0.13
		c-0.11-0.08-0.21-0.21-0.31-0.38l-2.94-4.14c-0.14-0.21-0.29-0.36-0.45-0.44s-0.38-0.12-0.66-0.12h-1.36v5.22h-1.65V53.2h1.65
		V58.18z"/>
	<path class="st4" d="M223.98,58.93c0,0.86-0.14,1.65-0.41,2.37c-0.28,0.72-0.66,1.34-1.16,1.86c-0.5,0.52-1.09,0.92-1.79,1.21
		c-0.7,0.29-1.47,0.43-2.32,0.43s-1.62-0.14-2.32-0.43s-1.29-0.69-1.8-1.21c-0.5-0.52-0.89-1.14-1.16-1.86
		c-0.27-0.72-0.41-1.51-0.41-2.37c0-0.85,0.14-1.64,0.41-2.36c0.28-0.72,0.66-1.34,1.16-1.86c0.5-0.52,1.1-0.92,1.8-1.21
		c0.7-0.29,1.47-0.44,2.32-0.44s1.62,0.15,2.32,0.44c0.7,0.29,1.29,0.69,1.79,1.21c0.5,0.52,0.88,1.14,1.16,1.86
		S223.98,58.08,223.98,58.93z M222.29,58.93c0-0.69-0.09-1.31-0.28-1.86c-0.19-0.55-0.46-1.01-0.8-1.4
		c-0.35-0.38-0.77-0.67-1.26-0.88c-0.49-0.2-1.04-0.3-1.65-0.3c-0.61,0-1.16,0.1-1.65,0.3c-0.49,0.2-0.91,0.5-1.26,0.88
		c-0.35,0.38-0.62,0.85-0.81,1.4s-0.28,1.17-0.28,1.86c0,0.69,0.09,1.31,0.28,1.86c0.19,0.55,0.46,1.01,0.81,1.39
		s0.77,0.67,1.26,0.87c0.49,0.2,1.04,0.3,1.65,0.3c0.61,0,1.16-0.1,1.65-0.3c0.49-0.2,0.91-0.49,1.26-0.87
		c0.35-0.38,0.62-0.84,0.8-1.39C222.2,60.25,222.29,59.63,222.29,58.93z"/>
	<path class="st4" d="M233.54,53.72c0.08-0.13,0.18-0.25,0.31-0.36c0.13-0.11,0.27-0.16,0.43-0.16h1.23v11.48h-1.66v-7.98
		c0-0.23,0.01-0.48,0.02-0.74c0.01-0.26,0.04-0.54,0.08-0.83c-0.1,0.26-0.2,0.49-0.3,0.7c-0.11,0.21-0.21,0.41-0.31,0.58l-5.22,7.75
		c-0.08,0.13-0.18,0.25-0.3,0.36c-0.13,0.11-0.27,0.16-0.43,0.16h-1.23V53.2h1.66v7.98c0,0.23-0.01,0.48-0.02,0.73
		c-0.01,0.25-0.04,0.52-0.07,0.81c0.09-0.25,0.19-0.48,0.3-0.69s0.21-0.4,0.32-0.56L233.54,53.72z M230.88,51.68
		c0.21,0,0.39-0.02,0.54-0.07c0.15-0.04,0.27-0.12,0.36-0.22c0.09-0.1,0.15-0.24,0.2-0.41c0.04-0.17,0.06-0.38,0.06-0.63h0.89
		c0.11,0,0.19,0.05,0.24,0.14c0.06,0.09,0.08,0.2,0.08,0.31c0,0.53-0.21,0.94-0.63,1.23c-0.42,0.29-1,0.43-1.74,0.43
		c-0.74,0-1.32-0.14-1.74-0.43c-0.42-0.29-0.63-0.7-0.63-1.23c0-0.11,0.03-0.21,0.08-0.31c0.06-0.09,0.14-0.14,0.24-0.14h0.89
		c0,0.25,0.02,0.46,0.06,0.63c0.04,0.17,0.1,0.31,0.2,0.41c0.09,0.1,0.21,0.18,0.36,0.22S230.66,51.68,230.88,51.68z"/>
	<path class="st4" d="M253.1,58.93c0,0.86-0.14,1.65-0.41,2.37c-0.27,0.72-0.66,1.34-1.15,1.86c-0.5,0.52-1.09,0.92-1.79,1.21
		s-1.47,0.43-2.32,0.43s-1.62-0.14-2.32-0.43c-0.7-0.29-1.29-0.69-1.79-1.21c-0.5-0.52-0.89-1.14-1.16-1.86
		c-0.28-0.72-0.41-1.51-0.41-2.37c0-0.85,0.14-1.64,0.41-2.36s0.66-1.34,1.16-1.86c0.5-0.52,1.1-0.92,1.79-1.21
		c0.7-0.29,1.47-0.44,2.32-0.44s1.62,0.15,2.32,0.44c0.7,0.29,1.3,0.69,1.79,1.21c0.5,0.52,0.88,1.14,1.15,1.86
		C252.96,57.29,253.1,58.08,253.1,58.93z M251.41,58.93c0-0.69-0.09-1.31-0.28-1.86c-0.19-0.55-0.46-1.01-0.8-1.4
		c-0.35-0.38-0.77-0.67-1.26-0.88c-0.49-0.2-1.04-0.3-1.65-0.3c-0.61,0-1.16,0.1-1.65,0.3c-0.49,0.2-0.91,0.5-1.26,0.88
		c-0.35,0.38-0.62,0.85-0.81,1.4c-0.19,0.55-0.29,1.17-0.29,1.86c0,0.69,0.1,1.31,0.29,1.86c0.19,0.55,0.46,1.01,0.81,1.39
		s0.77,0.67,1.26,0.87c0.49,0.2,1.04,0.3,1.65,0.3c0.61,0,1.16-0.1,1.65-0.3c0.49-0.2,0.91-0.49,1.26-0.87s0.62-0.84,0.8-1.39
		C251.32,60.25,251.41,59.63,251.41,58.93z"/>
	<path class="st4" d="M262.75,54.49h-5.84v3.61h2.18c0.71,0,1.31,0.08,1.82,0.23c0.51,0.16,0.93,0.37,1.26,0.65
		c0.33,0.28,0.58,0.61,0.73,0.99c0.16,0.38,0.24,0.8,0.24,1.24c0,0.53-0.09,1.01-0.27,1.43c-0.18,0.43-0.45,0.79-0.79,1.09
		c-0.35,0.3-0.77,0.53-1.28,0.7c-0.5,0.16-1.08,0.24-1.72,0.24h-3.82V53.2h7.49V54.49z M256.91,59.41v3.95h2.17
		c0.44,0,0.81-0.05,1.12-0.15c0.31-0.1,0.56-0.24,0.75-0.41c0.19-0.18,0.34-0.38,0.43-0.63c0.09-0.24,0.13-0.51,0.13-0.8
		c0-0.31-0.04-0.58-0.13-0.83c-0.09-0.24-0.23-0.45-0.42-0.62c-0.2-0.17-0.45-0.3-0.75-0.38s-0.68-0.13-1.12-0.13H256.91z"/>
	<path class="st4" d="M274,53.2v11.48h-1.66V54.49h-3.69c-0.07,1.47-0.18,2.74-0.3,3.82c-0.13,1.08-0.28,2-0.46,2.76
		c-0.18,0.76-0.38,1.39-0.61,1.87c-0.23,0.48-0.48,0.86-0.75,1.13c-0.27,0.27-0.56,0.46-0.88,0.56c-0.31,0.1-0.65,0.15-0.99,0.15
		c-0.3,0-0.54-0.03-0.7-0.08c-0.16-0.06-0.24-0.14-0.24-0.24v-1.05h0.57c0.21,0,0.42-0.04,0.62-0.12s0.4-0.24,0.6-0.49
		c0.19-0.24,0.37-0.6,0.54-1.06c0.17-0.46,0.33-1.07,0.47-1.82c0.14-0.76,0.26-1.69,0.36-2.79c0.1-1.1,0.18-2.41,0.23-3.94H274z"/>
	<path class="st4" d="M286.27,64.68h-1.28c-0.14,0-0.26-0.04-0.36-0.11c-0.09-0.07-0.16-0.17-0.21-0.28l-1.03-2.7h-5.1l-1.03,2.7
		c-0.04,0.1-0.11,0.19-0.2,0.27c-0.1,0.08-0.22,0.12-0.36,0.12h-1.27l4.58-11.48h1.67L286.27,64.68z M278.76,60.41h4.18l-1.73-4.52
		c-0.06-0.14-0.12-0.31-0.18-0.5c-0.06-0.19-0.12-0.4-0.18-0.62c-0.06,0.22-0.12,0.43-0.18,0.62c-0.06,0.19-0.12,0.36-0.18,0.5
		L278.76,60.41z"/>
	<path class="st4" d="M295.45,62.25c0.09,0,0.17,0.03,0.24,0.1l0.66,0.72c-0.47,0.55-1.04,0.98-1.72,1.28
		c-0.67,0.3-1.48,0.46-2.43,0.46c-0.83,0-1.58-0.14-2.26-0.43c-0.67-0.29-1.25-0.69-1.73-1.21c-0.48-0.52-0.84-1.14-1.1-1.86
		c-0.26-0.72-0.39-1.51-0.39-2.38c0-0.86,0.13-1.66,0.41-2.38c0.27-0.72,0.66-1.34,1.15-1.85c0.5-0.51,1.09-0.92,1.78-1.2
		c0.69-0.29,1.45-0.43,2.28-0.43c0.82,0,1.54,0.13,2.17,0.4c0.63,0.27,1.18,0.62,1.65,1.06l-0.54,0.77
		c-0.04,0.05-0.08,0.1-0.13,0.13c-0.05,0.03-0.12,0.05-0.21,0.05c-0.1,0-0.22-0.05-0.36-0.15c-0.14-0.1-0.31-0.21-0.54-0.34
		c-0.22-0.13-0.5-0.24-0.83-0.34c-0.33-0.1-0.74-0.15-1.22-0.15c-0.58,0-1.11,0.1-1.59,0.3c-0.48,0.2-0.9,0.49-1.24,0.87
		c-0.35,0.38-0.62,0.84-0.81,1.39c-0.19,0.55-0.29,1.17-0.29,1.86c0,0.7,0.1,1.33,0.3,1.88c0.2,0.55,0.47,1.02,0.82,1.4
		s0.76,0.67,1.24,0.87s0.98,0.3,1.53,0.3c0.34,0,0.64-0.02,0.9-0.06c0.27-0.04,0.51-0.1,0.74-0.18s0.44-0.18,0.64-0.31
		s0.39-0.28,0.59-0.46c0.04-0.04,0.09-0.07,0.13-0.09C295.35,62.26,295.4,62.25,295.45,62.25z"/>
	<path class="st4" d="M305.9,53.2v1.38h-3.67v10.1h-1.65v-10.1h-3.68V53.2H305.9z"/>
	<path class="st4" d="M314.96,53.72c0.08-0.13,0.18-0.25,0.31-0.36s0.27-0.16,0.43-0.16h1.23v11.48h-1.66v-7.98
		c0-0.23,0.01-0.48,0.02-0.74c0.01-0.26,0.04-0.54,0.08-0.83c-0.1,0.26-0.2,0.49-0.3,0.7c-0.11,0.21-0.21,0.41-0.31,0.58l-5.22,7.75
		c-0.07,0.13-0.18,0.25-0.3,0.36c-0.13,0.11-0.27,0.16-0.43,0.16h-1.23V53.2h1.66v7.98c0,0.23,0,0.48-0.02,0.73
		c-0.01,0.25-0.04,0.52-0.07,0.81c0.09-0.25,0.19-0.48,0.3-0.69s0.21-0.4,0.32-0.56L314.96,53.72z"/>
	<path class="st4" d="M322.12,60.33v0.2l-2.01,3.12l-0.49-0.23c-0.13-0.06-0.21-0.15-0.24-0.26c-0.02-0.11,0-0.24,0.08-0.37
		l1.25-2.06c0.04-0.06,0.07-0.12,0.11-0.17c0.04-0.05,0.07-0.09,0.11-0.13c-0.04-0.03-0.07-0.07-0.11-0.12
		c-0.04-0.05-0.08-0.11-0.11-0.18l-1.25-2.06c-0.07-0.13-0.1-0.26-0.08-0.37c0.03-0.11,0.1-0.2,0.24-0.26l0.49-0.23L322.12,60.33z
		 M324.53,60.33v0.2l-2.01,3.12l-0.49-0.23c-0.13-0.06-0.21-0.15-0.24-0.26c-0.02-0.11,0-0.24,0.08-0.37l1.25-2.06
		c0.04-0.06,0.07-0.12,0.11-0.17c0.04-0.05,0.07-0.09,0.11-0.13c-0.04-0.03-0.07-0.07-0.11-0.12c-0.04-0.05-0.08-0.11-0.11-0.18
		l-1.25-2.06c-0.07-0.13-0.1-0.26-0.08-0.37c0.03-0.11,0.1-0.2,0.24-0.26l0.49-0.23L324.53,60.33z"/>
</g>
</svg>
