<svg width="237" height="52" viewBox="0 0 237 52" fill="none" xmlns="http://www.w3.org/2000/svg">
<path d="M105.348 19.7138H104.606C104.525 19.7138 104.455 19.6907 104.397 19.6502C104.345 19.6098 104.304 19.552 104.281 19.4884L103.684 17.9284H100.726L100.128 19.4884C100.105 19.5462 100.064 19.5982 100.012 19.6444C99.96 19.6907 99.8846 19.7138 99.8034 19.7138H99.0668L101.723 13.0809H102.692L105.348 19.7138ZM100.992 17.2467H103.417L102.408 14.6351C102.373 14.5542 102.338 14.456 102.303 14.3462C102.268 14.2364 102.234 14.1151 102.199 13.988C102.164 14.1151 102.129 14.2364 102.094 14.3462C102.06 14.456 102.025 14.5542 101.99 14.6351L100.992 17.2467Z" fill="white"/>
<path d="M111.612 19.7138H110.649V16.7151H107.135V19.7138H106.172V13.0809H107.135V16.0218H110.649V13.0809H111.612V19.7138Z" fill="white"/>
<path d="M119.465 16.3916C119.465 16.8884 119.384 17.3449 119.228 17.7609C119.071 18.1769 118.845 18.5351 118.555 18.8356C118.265 19.136 117.923 19.3671 117.517 19.5347C117.111 19.7022 116.664 19.7831 116.171 19.7831C115.678 19.7831 115.231 19.7022 114.825 19.5347C114.419 19.3671 114.077 19.136 113.781 18.8356C113.491 18.5351 113.265 18.1769 113.109 17.7609C112.952 17.3449 112.871 16.8884 112.871 16.3916C112.871 15.9004 112.952 15.444 113.109 15.028C113.271 14.612 113.491 14.2538 113.781 13.9533C114.071 13.6529 114.419 13.4218 114.825 13.2542C115.231 13.0867 115.678 13 116.171 13C116.664 13 117.111 13.0867 117.517 13.2542C117.923 13.4218 118.271 13.6529 118.555 13.9533C118.845 14.2538 119.065 14.612 119.228 15.028C119.384 15.444 119.465 15.9004 119.465 16.3916ZM118.485 16.3916C118.485 15.9929 118.433 15.6347 118.323 15.3169C118.213 14.9991 118.056 14.7333 117.859 14.508C117.656 14.2884 117.412 14.1209 117.128 13.9996C116.844 13.884 116.525 13.8262 116.171 13.8262C115.817 13.8262 115.498 13.884 115.214 13.9996C114.93 14.1151 114.686 14.2827 114.483 14.508C114.28 14.7333 114.124 14.9991 114.013 15.3169C113.903 15.6347 113.851 15.9929 113.851 16.3916C113.851 16.7902 113.903 17.1484 114.013 17.4662C114.124 17.784 114.28 18.0498 114.483 18.2693C114.686 18.4889 114.93 18.6564 115.214 18.772C115.498 18.8876 115.817 18.9453 116.171 18.9453C116.525 18.9453 116.844 18.8876 117.128 18.772C117.412 18.6564 117.656 18.4889 117.859 18.2693C118.062 18.0498 118.218 17.784 118.323 17.4662C118.427 17.1484 118.485 16.796 118.485 16.3916Z" fill="white"/>
<path d="M122.702 17.316V17.2004L123.862 15.4036L124.152 15.5364C124.227 15.5711 124.268 15.6231 124.285 15.6867C124.297 15.7502 124.285 15.8196 124.239 15.9004L123.52 17.0907C123.473 17.1658 123.427 17.2236 123.38 17.264C123.427 17.3044 123.479 17.3622 123.52 17.4373L124.239 18.6276C124.279 18.7027 124.297 18.7778 124.285 18.8413C124.274 18.9049 124.227 18.9569 124.152 18.9916L123.862 19.1244L122.702 17.316ZM124.094 17.316V17.2004L125.254 15.4036L125.544 15.5364C125.619 15.5711 125.66 15.6231 125.677 15.6867C125.689 15.7502 125.677 15.8196 125.631 15.9004L124.912 17.0907C124.865 17.1658 124.819 17.2236 124.772 17.264C124.819 17.3044 124.871 17.3622 124.912 17.4373L125.631 18.6276C125.677 18.7027 125.689 18.7778 125.677 18.8413C125.666 18.9049 125.619 18.9569 125.544 18.9916L125.254 19.1244L124.094 17.316Z" fill="white"/>
<path d="M127.092 19.7138V13.0809H128.055V18.9627H131.315V13.0809H132.278V18.9627H133.281V21.0369C133.281 21.1178 133.252 21.1871 133.194 21.2391C133.136 21.2911 133.061 21.32 132.974 21.32H132.405V19.7138H127.092Z" fill="white"/>
<path d="M138.478 13.0809V13.8551H135.317V15.9929H137.863V16.744H135.317V18.9396H138.484L138.478 19.7138H134.354V13.0809H138.478Z" fill="white"/>
<path d="M145.142 19.7138H144.179V16.7151H140.664V19.7138H139.702V13.0809H140.664V16.0218H144.179V13.0809H145.142V19.7138Z" fill="white"/>
<path d="M151.336 13.0809V13.8782H149.208V19.7138H148.251V13.8782H146.116V13.0809H151.336Z" fill="white"/>
<path d="M153.256 17.2582V19.7138H152.299V13.0809H154.3C154.724 13.0809 155.095 13.1329 155.408 13.2311C155.721 13.3293 155.982 13.468 156.185 13.6471C156.394 13.8262 156.545 14.0458 156.649 14.3C156.754 14.5542 156.8 14.8373 156.8 15.1493C156.8 15.4613 156.748 15.7444 156.638 16.0044C156.527 16.2644 156.371 16.484 156.162 16.6747C155.953 16.8653 155.692 17.0098 155.379 17.1138C155.066 17.2178 154.706 17.2698 154.3 17.2698H153.256V17.2582ZM153.256 16.5013H154.3C154.55 16.5013 154.77 16.4667 154.967 16.4031C155.164 16.3396 155.321 16.2471 155.454 16.1258C155.582 16.0044 155.681 15.8658 155.75 15.6982C155.82 15.5307 155.849 15.3516 155.849 15.1493C155.849 14.9413 155.82 14.7564 155.756 14.5947C155.692 14.4329 155.599 14.2942 155.466 14.1787C155.338 14.0631 155.176 13.9764 154.985 13.9187C154.793 13.8609 154.567 13.8262 154.306 13.8262H153.262V16.5013H153.256Z" fill="white"/>
<path d="M161.214 17.2582V19.7138H160.257V13.0809H162.258C162.681 13.0809 163.052 13.1329 163.366 13.2311C163.679 13.3293 163.94 13.468 164.143 13.6471C164.346 13.8262 164.502 14.0458 164.601 14.3C164.7 14.5542 164.758 14.8373 164.758 15.1493C164.758 15.4613 164.705 15.7444 164.595 16.0044C164.485 16.2644 164.328 16.484 164.12 16.6747C163.911 16.8653 163.65 17.0098 163.337 17.1138C163.023 17.2178 162.664 17.2698 162.258 17.2698H161.214V17.2582ZM161.214 16.5013H162.258C162.507 16.5013 162.728 16.4667 162.925 16.4031C163.116 16.3396 163.279 16.2471 163.412 16.1258C163.54 16.0044 163.638 15.8658 163.708 15.6982C163.772 15.5307 163.806 15.3516 163.806 15.1493C163.806 14.9413 163.777 14.7564 163.714 14.5947C163.65 14.4329 163.551 14.2942 163.424 14.1787C163.296 14.0631 163.134 13.9764 162.942 13.9187C162.751 13.8609 162.525 13.8262 162.264 13.8262H161.22V16.5013H161.214Z" fill="white"/>
<path d="M170.859 19.7138H170.117C170.036 19.7138 169.966 19.6907 169.908 19.6502C169.856 19.6098 169.815 19.552 169.786 19.4884L169.189 17.9284H166.231L165.633 19.4884C165.61 19.5462 165.57 19.5982 165.517 19.6444C165.459 19.6907 165.39 19.7138 165.309 19.7138H164.572L167.228 13.0809H168.197L170.859 19.7138ZM166.498 17.2467H168.922L167.919 14.6351C167.884 14.5542 167.849 14.456 167.814 14.3462C167.779 14.2364 167.745 14.1151 167.71 13.988C167.675 14.1151 167.64 14.2364 167.605 14.3462C167.571 14.456 167.536 14.5542 167.501 14.6351L166.498 17.2467Z" fill="white"/>
<path d="M175.575 14.716C175.575 15.0453 175.493 15.3342 175.331 15.5884C175.169 15.8427 174.937 16.0391 174.635 16.1836C174.803 16.2529 174.954 16.3396 175.093 16.4436C175.232 16.5476 175.348 16.6631 175.447 16.7902C175.546 16.9173 175.621 17.056 175.673 17.2062C175.725 17.3564 175.754 17.5182 175.754 17.6858C175.754 17.9804 175.702 18.252 175.592 18.5062C175.482 18.7604 175.325 18.98 175.116 19.1707C174.908 19.3613 174.652 19.5116 174.351 19.6156C174.049 19.7253 173.701 19.7773 173.313 19.7773C172.837 19.7773 172.408 19.6964 172.019 19.5404C171.631 19.3844 171.306 19.1707 171.033 18.9049L171.312 18.4542C171.335 18.4196 171.37 18.3849 171.404 18.3618C171.439 18.3387 171.486 18.3271 171.532 18.3271C171.578 18.3271 171.625 18.3444 171.683 18.3733C171.741 18.408 171.805 18.4484 171.874 18.4947C171.944 18.5409 172.025 18.5929 172.118 18.6507C172.211 18.7084 172.315 18.7604 172.431 18.8067C172.553 18.8529 172.686 18.8933 172.837 18.928C172.988 18.9627 173.156 18.9742 173.347 18.9742C173.829 18.9742 174.2 18.8644 174.461 18.6449C174.722 18.4253 174.855 18.1191 174.855 17.7204C174.855 17.5529 174.821 17.3969 174.757 17.2582C174.693 17.1196 174.594 16.9982 174.473 16.9C174.351 16.8018 174.2 16.7209 174.02 16.6689C173.84 16.6169 173.637 16.588 173.417 16.588H172.501L172.495 15.8022H173.365C173.556 15.8022 173.73 15.7791 173.893 15.7329C174.055 15.6867 174.188 15.6231 174.304 15.5364C174.42 15.4498 174.507 15.3458 174.571 15.2187C174.635 15.0916 174.664 14.9471 174.664 14.7853C174.664 14.6351 174.635 14.5022 174.571 14.3809C174.513 14.2596 174.426 14.1556 174.31 14.0689C174.194 13.9822 174.055 13.9129 173.887 13.8667C173.719 13.8204 173.527 13.7973 173.318 13.7973C173.069 13.7973 172.86 13.8262 172.686 13.8782C172.512 13.9302 172.367 13.988 172.245 14.0516C172.124 14.1151 172.025 14.1729 171.95 14.2249C171.874 14.2769 171.805 14.3058 171.747 14.3058C171.694 14.3058 171.654 14.2942 171.619 14.2711C171.59 14.248 171.555 14.2133 171.526 14.1556L171.3 13.6991C171.555 13.4796 171.851 13.3062 172.187 13.1907C172.524 13.0693 172.901 13.0116 173.324 13.0116C173.666 13.0116 173.98 13.052 174.258 13.1387C174.536 13.2253 174.768 13.3409 174.966 13.4911C175.163 13.6413 175.314 13.8204 175.418 14.0284C175.517 14.2364 175.575 14.4676 175.575 14.716Z" fill="white"/>
<path d="M177.036 19.7138V13.0809H179.188C179.6 13.0809 179.959 13.1213 180.255 13.2022C180.551 13.2831 180.795 13.3987 180.986 13.5489C181.177 13.6991 181.317 13.8782 181.409 14.0978C181.502 14.3116 181.549 14.5542 181.549 14.8258C181.549 14.9876 181.525 15.1436 181.473 15.288C181.421 15.4324 181.346 15.5769 181.247 15.704C181.143 15.8311 181.015 15.9467 180.864 16.0507C180.708 16.1547 180.528 16.2356 180.319 16.3049C180.8 16.4031 181.16 16.5764 181.409 16.8307C181.659 17.0849 181.775 17.4142 181.775 17.8244C181.775 18.1076 181.723 18.3676 181.618 18.5987C181.514 18.8298 181.357 19.032 181.16 19.1996C180.957 19.3671 180.713 19.4942 180.418 19.5867C180.128 19.6791 179.791 19.7253 179.42 19.7253H177.036V19.7138ZM177.993 16.0333H179.147C179.397 16.0333 179.611 16.0102 179.791 15.9524C179.977 15.9004 180.128 15.8253 180.244 15.7329C180.365 15.6347 180.452 15.5191 180.51 15.3862C180.568 15.2533 180.597 15.0973 180.597 14.9356C180.597 14.5542 180.481 14.2711 180.249 14.0978C180.017 13.9244 179.664 13.832 179.182 13.832H177.987V16.0333H177.993ZM177.993 16.7093V18.9569H179.403C179.658 18.9569 179.872 18.928 180.052 18.8702C180.232 18.8124 180.377 18.7316 180.493 18.6276C180.609 18.5236 180.69 18.4022 180.748 18.2578C180.8 18.1133 180.829 17.9631 180.829 17.7898C180.829 17.4547 180.713 17.1947 180.476 16.9982C180.238 16.8018 179.884 16.7093 179.403 16.7093H177.993Z" fill="white"/>
<path d="M187.349 13.3813C187.395 13.3062 187.453 13.2369 187.528 13.1733C187.604 13.1098 187.685 13.0809 187.778 13.0809H188.491V19.7138H187.528V15.1031C187.528 14.9702 187.534 14.8258 187.54 14.6756C187.546 14.5253 187.563 14.3693 187.586 14.196C187.528 14.3462 187.47 14.4791 187.412 14.6004C187.349 14.7218 187.291 14.8373 187.233 14.9356L184.205 19.4133C184.164 19.4884 184.101 19.5578 184.031 19.6213C183.956 19.6849 183.874 19.7138 183.782 19.7138H183.068V13.0809H184.031V17.6916C184.031 17.8244 184.031 17.9689 184.019 18.1133C184.014 18.2578 183.996 18.4138 183.979 18.5813C184.031 18.4369 184.089 18.304 184.153 18.1827C184.217 18.0613 184.275 17.9516 184.338 17.8591L187.349 13.3813Z" fill="white"/>
<path d="M194.686 13.0809V13.8782H192.557V19.7138H191.6V13.8782H189.466V13.0809H194.686Z" fill="white"/>
<path d="M199.94 13.3813C199.987 13.3062 200.045 13.2369 200.12 13.1733C200.196 13.1098 200.277 13.0809 200.37 13.0809H201.083V19.7138H200.12V15.1031C200.12 14.9702 200.126 14.8258 200.132 14.6756C200.138 14.5253 200.155 14.3693 200.178 14.196C200.12 14.3462 200.062 14.4791 200.004 14.6004C199.94 14.7218 199.882 14.8373 199.824 14.9356L196.797 19.4133C196.756 19.4884 196.692 19.5578 196.623 19.6213C196.547 19.6849 196.466 19.7138 196.373 19.7138H195.66V13.0809H196.623V17.6916C196.623 17.8244 196.623 17.9689 196.611 18.1133C196.605 18.2578 196.588 18.4138 196.571 18.5813C196.623 18.4369 196.681 18.304 196.745 18.1827C196.808 18.0613 196.866 17.9516 196.93 17.8591L199.94 13.3813Z" fill="white"/>
<path d="M206.326 19.7138V16.8827H205.41C205.334 16.8884 205.265 16.8942 205.195 16.9116C205.126 16.9289 205.062 16.952 204.998 16.9924C204.934 17.0271 204.87 17.0791 204.807 17.1427C204.743 17.2062 204.679 17.2813 204.615 17.3738L203.217 19.3844C203.154 19.4884 203.072 19.5693 202.974 19.6271C202.875 19.6907 202.753 19.7196 202.614 19.7196H201.889L203.583 17.316C203.763 17.0444 203.983 16.848 204.238 16.7267C203.977 16.6747 203.745 16.5938 203.554 16.4898C203.362 16.3858 203.194 16.2529 203.067 16.1027C202.939 15.9524 202.84 15.7849 202.777 15.5942C202.713 15.4036 202.684 15.2013 202.684 14.9818C202.684 14.6987 202.736 14.4387 202.84 14.2076C202.945 13.9764 203.101 13.7742 203.299 13.6067C203.502 13.4391 203.745 13.312 204.041 13.2196C204.331 13.1271 204.667 13.0809 205.039 13.0809H207.283V19.7138H206.326ZM203.629 14.9702C203.629 15.1493 203.652 15.3111 203.705 15.4556C203.757 15.6 203.838 15.7156 203.948 15.8138C204.058 15.912 204.209 15.9871 204.383 16.0391C204.563 16.0911 204.778 16.12 205.033 16.12H206.32V13.8378H205.033C204.778 13.8378 204.563 13.8667 204.383 13.9187C204.203 13.9764 204.058 14.0516 203.948 14.1498C203.832 14.248 203.751 14.3693 203.699 14.508C203.658 14.6467 203.629 14.8027 203.629 14.9702Z" fill="white"/>
<path d="M104.42 22.3253V23.1227H102.292V28.9582H101.335V23.1227H99.2002V22.3253H104.42Z" fill="white"/>
<path d="M106.334 28.2013C106.41 28.184 106.485 28.1551 106.555 28.1147C106.63 28.0742 106.694 28.0164 106.758 27.9471C106.821 27.8778 106.879 27.7796 106.937 27.6698L107.251 27.0169L104.577 22.3196H105.47C105.551 22.3196 105.621 22.3369 105.667 22.3773C105.714 22.4178 105.76 22.4698 105.795 22.5391L107.384 25.4396C107.506 25.6707 107.604 25.9018 107.674 26.1271C107.709 26.0116 107.749 25.896 107.79 25.7804C107.836 25.6707 107.883 25.5551 107.941 25.4338L109.292 22.5333C109.321 22.4756 109.362 22.4293 109.414 22.3831C109.466 22.3369 109.536 22.3138 109.617 22.3138H110.412L107.709 28.0742C107.622 28.2591 107.529 28.4093 107.43 28.5307C107.332 28.652 107.227 28.7444 107.111 28.8196C106.995 28.8889 106.874 28.9409 106.746 28.9698C106.618 28.9987 106.473 29.016 106.323 29.016C106.149 29.016 106.009 28.9987 105.917 28.9698C105.824 28.9351 105.777 28.8889 105.777 28.8311V28.2244H106.108C106.178 28.2244 106.259 28.2187 106.334 28.2013Z" fill="white"/>
<path d="M112.175 26.5027V28.9582H111.218V22.3253H113.219C113.642 22.3253 114.013 22.3773 114.327 22.4756C114.64 22.5738 114.901 22.7124 115.104 22.8916C115.307 23.0707 115.463 23.2902 115.568 23.5444C115.672 23.7987 115.719 24.0818 115.719 24.3938C115.719 24.7058 115.666 24.9889 115.556 25.2489C115.446 25.5089 115.289 25.7284 115.081 25.9191C114.872 26.1098 114.611 26.2542 114.298 26.3582C113.984 26.4622 113.625 26.5142 113.219 26.5142H112.175V26.5027ZM112.175 25.7458H113.219C113.468 25.7458 113.689 25.7111 113.886 25.6476C114.077 25.584 114.24 25.4916 114.373 25.3702C114.501 25.2489 114.599 25.1102 114.669 24.9427C114.733 24.7751 114.767 24.596 114.767 24.3938C114.767 24.1858 114.738 24.0009 114.675 23.8391C114.611 23.6773 114.518 23.5387 114.385 23.4231C114.257 23.3076 114.095 23.2209 113.903 23.1631C113.712 23.1053 113.486 23.0707 113.225 23.0707H112.181V25.7458H112.175Z" fill="white"/>
<path d="M121.113 22.6258C121.159 22.5507 121.217 22.4813 121.292 22.4178C121.368 22.3542 121.449 22.3253 121.542 22.3253H122.255V28.9582H121.292V24.3476C121.292 24.2147 121.298 24.0702 121.304 23.92C121.31 23.7698 121.327 23.6138 121.35 23.4404C121.292 23.5907 121.234 23.7236 121.176 23.8449C121.113 23.9662 121.055 24.0818 120.997 24.18L117.969 28.6578C117.923 28.7329 117.865 28.8022 117.795 28.8658C117.725 28.9293 117.638 28.9582 117.546 28.9582H116.832V22.3253H117.795V26.936C117.795 27.0689 117.795 27.2133 117.783 27.3578C117.772 27.5022 117.76 27.6582 117.743 27.8258C117.795 27.6813 117.853 27.5484 117.917 27.4271C117.981 27.3058 118.039 27.196 118.102 27.1036L121.113 22.6258Z" fill="white"/>
<path d="M128.577 27.5542C128.629 27.5542 128.676 27.5716 128.716 27.612L129.099 28.028C128.827 28.3458 128.496 28.5942 128.102 28.7676C127.713 28.9409 127.243 29.0333 126.692 29.0333C126.211 29.0333 125.776 28.9524 125.381 28.7849C124.993 28.6173 124.656 28.3862 124.378 28.0858C124.1 27.7853 123.891 27.4271 123.74 27.0111C123.589 26.5951 123.514 26.1387 123.514 25.636C123.514 25.1391 123.595 24.6769 123.752 24.2609C123.908 23.8449 124.134 23.4867 124.419 23.192C124.709 22.8973 125.051 22.6604 125.451 22.4987C125.851 22.3311 126.292 22.2502 126.773 22.2502C127.249 22.2502 127.667 22.3253 128.032 22.4813C128.397 22.6373 128.716 22.8396 128.989 23.0938L128.676 23.5387C128.653 23.5676 128.629 23.5964 128.6 23.6138C128.571 23.6311 128.531 23.6427 128.479 23.6427C128.421 23.6427 128.351 23.6138 128.27 23.556C128.189 23.4982 128.09 23.4347 127.957 23.3596C127.829 23.2844 127.667 23.2209 127.475 23.1631C127.284 23.1053 127.046 23.0764 126.768 23.0764C126.431 23.0764 126.124 23.1342 125.845 23.2498C125.567 23.3653 125.323 23.5329 125.126 23.7524C124.923 23.972 124.767 24.2378 124.656 24.5556C124.546 24.8733 124.488 25.2316 124.488 25.6302C124.488 26.0347 124.546 26.3987 124.662 26.7164C124.778 27.0342 124.935 27.3058 125.138 27.5253C125.341 27.7449 125.579 27.9124 125.857 28.028C126.13 28.1436 126.425 28.2013 126.744 28.2013C126.942 28.2013 127.116 28.1898 127.266 28.1667C127.423 28.1436 127.562 28.1089 127.696 28.0627C127.829 28.0164 127.951 27.9587 128.067 27.8836C128.183 27.8084 128.293 27.7218 128.409 27.6178C128.432 27.5947 128.461 27.5773 128.484 27.5658C128.519 27.56 128.548 27.5542 128.577 27.5542Z" fill="white"/>
<path d="M134.638 22.3253V23.1227H132.51V28.9582H131.553V23.1227H129.418V22.3253H134.638Z" fill="white"/>
<path d="M139.893 22.6258C139.939 22.5507 139.997 22.4813 140.073 22.4178C140.148 22.3542 140.229 22.3253 140.322 22.3253H141.036V28.9582H140.073V24.3476C140.073 24.2147 140.079 24.0702 140.084 23.92C140.09 23.7698 140.108 23.6138 140.131 23.4404C140.073 23.5907 140.015 23.7236 139.957 23.8449C139.893 23.9662 139.835 24.0818 139.777 24.18L136.749 28.6578C136.709 28.7329 136.645 28.8022 136.575 28.8658C136.5 28.9293 136.419 28.9582 136.326 28.9582H135.613V22.3253H136.575V26.936C136.575 27.0689 136.575 27.2133 136.564 27.3578C136.558 27.5022 136.541 27.6582 136.523 27.8258C136.575 27.6813 136.633 27.5484 136.697 27.4271C136.761 27.3058 136.819 27.196 136.883 27.1036L139.893 22.6258Z" fill="white"/>
<path d="M147.201 28.9582H146.244V26.1271C145.89 26.2196 145.542 26.2947 145.206 26.3467C144.869 26.3987 144.556 26.4218 144.266 26.416C143.976 26.4102 143.704 26.3698 143.466 26.3004C143.222 26.2311 143.013 26.1213 142.839 25.9653C142.665 25.8093 142.532 25.6187 142.433 25.376C142.335 25.1333 142.288 24.8387 142.288 24.492V22.3253H143.251V24.4978C143.251 24.7982 143.309 25.0409 143.425 25.22C143.541 25.4049 143.727 25.532 143.97 25.6071C144.214 25.6822 144.527 25.7053 144.898 25.6764C145.275 25.6476 145.722 25.5667 146.238 25.4338V22.3253H147.195V28.9582H147.201Z" fill="white"/>
<path d="M152.978 22.3253V23.0996H149.817V25.2373H152.363V25.9884H149.817V28.184H152.984L152.978 28.9582H148.854V22.3253H152.978Z" fill="white"/>
<path d="M158.731 27.5542C158.784 27.5542 158.83 27.5716 158.871 27.612L159.253 28.028C158.981 28.3458 158.65 28.5942 158.256 28.7676C157.867 28.9409 157.397 29.0333 156.846 29.0333C156.365 29.0333 155.924 28.9524 155.536 28.7849C155.141 28.6173 154.811 28.3862 154.532 28.0858C154.254 27.7853 154.039 27.4271 153.894 27.0111C153.743 26.5951 153.668 26.1387 153.668 25.636C153.668 25.1391 153.749 24.6769 153.906 24.2609C154.062 23.8449 154.289 23.4867 154.573 23.192C154.863 22.8973 155.205 22.6604 155.605 22.4987C156.005 22.3311 156.446 22.2502 156.933 22.2502C157.403 22.2502 157.827 22.3253 158.192 22.4813C158.557 22.6373 158.876 22.8396 159.149 23.0938L158.836 23.5387C158.813 23.5676 158.789 23.5964 158.76 23.6138C158.731 23.6311 158.691 23.6427 158.639 23.6427C158.581 23.6427 158.511 23.6138 158.43 23.556C158.349 23.4982 158.244 23.4347 158.117 23.3596C157.989 23.2844 157.827 23.2209 157.635 23.1631C157.444 23.1053 157.206 23.0764 156.928 23.0764C156.597 23.0764 156.29 23.1342 156.005 23.2498C155.727 23.3653 155.483 23.5329 155.286 23.7524C155.083 23.972 154.927 24.2378 154.816 24.5556C154.706 24.8733 154.648 25.2316 154.648 25.6302C154.648 26.0347 154.706 26.3987 154.822 26.7164C154.938 27.0342 155.095 27.3058 155.298 27.5253C155.501 27.7449 155.739 27.9124 156.017 28.028C156.295 28.1436 156.585 28.2013 156.904 28.2013C157.102 28.2013 157.276 28.1898 157.426 28.1667C157.583 28.1436 157.722 28.1089 157.856 28.0627C157.989 28.0164 158.111 27.9587 158.221 27.8836C158.331 27.8084 158.447 27.7218 158.563 27.6178C158.586 27.5947 158.615 27.5773 158.639 27.5658C158.662 27.5542 158.697 27.5542 158.731 27.5542Z" fill="white"/>
<path d="M161.214 25.2027H161.898C161.968 25.2027 162.032 25.1969 162.084 25.1911C162.142 25.1796 162.194 25.168 162.246 25.1449C162.298 25.1218 162.345 25.0871 162.391 25.0467C162.438 25.0062 162.484 24.9542 162.53 24.8907L164.224 22.5911C164.27 22.5102 164.334 22.4467 164.404 22.3947C164.473 22.3484 164.555 22.3196 164.647 22.3196H165.454L163.476 25.0351C163.325 25.2489 163.134 25.3991 162.884 25.48C163.052 25.5204 163.192 25.5956 163.308 25.6938C163.424 25.792 163.534 25.9307 163.644 26.0982L165.628 28.9524H164.769C164.671 28.9524 164.589 28.9293 164.526 28.8773C164.462 28.8311 164.398 28.756 164.346 28.6578L162.641 26.2658C162.559 26.1444 162.472 26.0578 162.38 26.0116C162.287 25.9653 162.159 25.9422 162.003 25.9422H161.214V28.9582H160.257V22.3253H161.214V25.2027Z" fill="white"/>
<path d="M170.813 22.6258C170.859 22.5507 170.917 22.4813 170.993 22.4178C171.068 22.3542 171.149 22.3253 171.242 22.3253H171.955V28.9582H170.993V24.3476C170.993 24.2147 170.998 24.0702 171.004 23.92C171.01 23.7698 171.027 23.6138 171.051 23.4404C170.993 23.5907 170.935 23.7236 170.877 23.8449C170.813 23.9662 170.755 24.0818 170.697 24.18L167.669 28.6578C167.623 28.7329 167.565 28.8022 167.495 28.8658C167.42 28.9293 167.339 28.9582 167.246 28.9582H166.532V22.3253H167.495V26.936C167.495 27.0689 167.489 27.2133 167.484 27.3578C167.478 27.5022 167.46 27.6582 167.443 27.8258C167.495 27.6813 167.553 27.5484 167.617 27.4271C167.681 27.3058 167.739 27.196 167.803 27.1036L170.813 22.6258Z" fill="white"/>
<path d="M175.145 25.5436L172.959 22.3196H173.916C173.985 22.3196 174.038 22.3311 174.067 22.3542C174.101 22.3773 174.13 22.4062 174.154 22.4524L175.853 25.0756C175.87 25.0409 175.882 25.0004 175.899 24.9658C175.911 24.9311 175.934 24.8907 175.957 24.8502L177.552 22.464C177.61 22.3658 177.686 22.3196 177.773 22.3196H178.689L176.491 25.5031L178.759 28.9524H177.808C177.738 28.9524 177.68 28.9351 177.639 28.8947C177.599 28.86 177.564 28.8138 177.541 28.7676L175.795 26.0289C175.783 26.0636 175.772 26.0982 175.76 26.1329C175.749 26.1676 175.731 26.1964 175.714 26.2253L174.014 28.7733C173.985 28.8138 173.951 28.86 173.91 28.8947C173.869 28.9351 173.823 28.9524 173.759 28.9524H172.866L175.145 25.5436Z" fill="white"/>
<path d="M182.981 25.2027H183.666C183.735 25.2027 183.793 25.1969 183.851 25.1911C183.909 25.1796 183.961 25.168 184.014 25.1449C184.066 25.1218 184.112 25.0871 184.159 25.0467C184.205 25.0062 184.251 24.9542 184.298 24.8907L185.991 22.5911C186.044 22.5102 186.102 22.4467 186.171 22.3947C186.241 22.3484 186.322 22.3196 186.415 22.3196H187.221L185.243 25.0351C185.092 25.2489 184.895 25.3991 184.652 25.48C184.82 25.5204 184.959 25.5956 185.075 25.6938C185.191 25.792 185.301 25.9307 185.411 26.0982L187.395 28.9524H186.537C186.438 28.9524 186.357 28.9293 186.293 28.8773C186.229 28.8311 186.171 28.756 186.113 28.6578L184.408 26.2658C184.327 26.1444 184.24 26.0578 184.147 26.0116C184.054 25.9653 183.927 25.9422 183.764 25.9422H182.975V28.9582H182.018V22.3253H182.975V25.2027H182.981Z" fill="white"/>
<path d="M193.462 22.3253V28.9582H192.505V23.0707H190.365C190.324 23.92 190.26 24.6538 190.191 25.2778C190.115 25.9018 190.028 26.4333 189.924 26.8724C189.819 27.3116 189.703 27.6756 189.57 27.9529C189.437 28.2302 189.292 28.4498 189.135 28.6058C188.978 28.7618 188.804 28.8716 188.625 28.9293C188.445 28.9871 188.253 29.016 188.05 29.016C187.876 29.016 187.737 28.9987 187.644 28.9698C187.552 28.9351 187.505 28.8889 187.505 28.8311V28.2244H187.836C187.958 28.2244 188.074 28.2013 188.195 28.1551C188.317 28.1089 188.427 28.0164 188.543 27.872C188.654 27.7333 188.764 27.5253 188.857 27.2596C188.955 26.9938 189.048 26.6413 189.129 26.208C189.21 25.7689 189.28 25.2316 189.338 24.6018C189.396 23.9662 189.437 23.2093 189.471 22.3253H193.462Z" fill="white"/>
<path d="M200.578 28.9582H199.836C199.755 28.9582 199.685 28.9351 199.627 28.8947C199.575 28.8542 199.534 28.7964 199.505 28.7329L198.908 27.1729H195.95L195.353 28.7329C195.329 28.7907 195.289 28.8427 195.237 28.8889C195.179 28.9351 195.109 28.9582 195.028 28.9582H194.291L196.948 22.3253H197.916L200.578 28.9582ZM196.217 26.4911H198.641L197.638 23.8796C197.603 23.7987 197.568 23.7004 197.533 23.5907C197.499 23.4809 197.464 23.3596 197.429 23.2324C197.394 23.3596 197.359 23.4809 197.325 23.5907C197.29 23.7004 197.255 23.7987 197.22 23.8796L196.217 26.4911Z" fill="white"/>
<path d="M205.903 27.5542C205.955 27.5542 206.001 27.5716 206.042 27.612L206.425 28.028C206.152 28.3458 205.822 28.5942 205.427 28.7676C205.039 28.9409 204.569 29.0333 204.018 29.0333C203.536 29.0333 203.096 28.9524 202.707 28.7849C202.313 28.6173 201.982 28.3862 201.704 28.0858C201.425 27.7853 201.211 27.4271 201.066 27.0111C200.915 26.5951 200.839 26.1387 200.839 25.636C200.839 25.1391 200.921 24.6769 201.077 24.2609C201.234 23.8449 201.46 23.4867 201.744 23.192C202.034 22.8973 202.376 22.6604 202.777 22.4987C203.177 22.3311 203.618 22.2502 204.105 22.2502C204.575 22.2502 204.998 22.3253 205.363 22.4813C205.729 22.6373 206.048 22.8396 206.32 23.0938L206.007 23.5387C205.984 23.5676 205.961 23.5964 205.932 23.6138C205.903 23.6311 205.862 23.6427 205.81 23.6427C205.752 23.6427 205.682 23.6138 205.601 23.556C205.52 23.4982 205.416 23.4347 205.288 23.3596C205.16 23.2844 204.998 23.2209 204.807 23.1631C204.615 23.1053 204.377 23.0764 204.099 23.0764C203.768 23.0764 203.461 23.1342 203.177 23.2498C202.898 23.3653 202.655 23.5329 202.458 23.7524C202.255 23.972 202.098 24.2378 201.988 24.5556C201.878 24.8733 201.82 25.2316 201.82 25.6302C201.82 26.0347 201.878 26.3987 201.994 26.7164C202.11 27.0342 202.266 27.3058 202.469 27.5253C202.672 27.7449 202.91 27.9124 203.188 28.028C203.467 28.1436 203.757 28.2013 204.076 28.2013C204.273 28.2013 204.447 28.1898 204.598 28.1667C204.754 28.1436 204.894 28.1089 205.027 28.0627C205.16 28.0164 205.282 27.9587 205.392 27.8836C205.503 27.8084 205.619 27.7218 205.735 27.6178C205.758 27.5947 205.787 27.5773 205.81 27.5658C205.833 27.5542 205.874 27.5542 205.903 27.5542Z" fill="white"/>
<path d="M211.964 22.3253V23.1227H209.835V28.9582H208.878V23.1227H206.744V22.3253H211.964Z" fill="white"/>
<path d="M217.05 22.3253V23.0996H213.889V25.2373H216.436V25.9884H213.889V28.184H217.056L217.05 28.9582H212.932V22.3253H217.05Z" fill="white"/>
<path d="M219.237 26.5027V28.9582H218.28V22.3253H220.281C220.704 22.3253 221.076 22.3773 221.389 22.4756C221.702 22.5738 221.963 22.7124 222.166 22.8916C222.369 23.0707 222.526 23.2902 222.624 23.5444C222.723 23.7987 222.781 24.0818 222.781 24.3938C222.781 24.7058 222.729 24.9889 222.618 25.2489C222.508 25.5089 222.352 25.7284 222.143 25.9191C221.934 26.1098 221.673 26.2542 221.36 26.3582C221.047 26.4622 220.687 26.5142 220.281 26.5142H219.237V26.5027ZM219.237 25.7458H220.281C220.53 25.7458 220.751 25.7111 220.948 25.6476C221.139 25.584 221.302 25.4916 221.435 25.3702C221.563 25.2489 221.661 25.1102 221.731 24.9427C221.795 24.7751 221.83 24.596 221.83 24.3938C221.83 24.1858 221.801 24.0009 221.737 23.8391C221.673 23.6773 221.574 23.5387 221.447 23.4231C221.319 23.3076 221.157 23.2209 220.965 23.1631C220.774 23.1053 220.548 23.0707 220.287 23.0707H219.243V25.7458H219.237Z" fill="white"/>
<path d="M230.066 25.636C230.066 26.1329 229.984 26.5893 229.828 27.0053C229.671 27.4213 229.445 27.7796 229.161 28.08C228.871 28.3804 228.529 28.6116 228.123 28.7791C227.717 28.9467 227.27 29.0276 226.777 29.0276C226.284 29.0276 225.837 28.9467 225.431 28.7791C225.025 28.6116 224.683 28.3804 224.393 28.08C224.103 27.7796 223.877 27.4213 223.72 27.0053C223.564 26.5893 223.483 26.1329 223.483 25.636C223.483 25.1449 223.564 24.6884 223.72 24.2724C223.877 23.8564 224.103 23.4982 224.393 23.1978C224.683 22.8973 225.031 22.6662 225.431 22.4987C225.837 22.3311 226.284 22.2444 226.777 22.2444C227.27 22.2444 227.717 22.3311 228.123 22.4987C228.529 22.6662 228.877 22.8973 229.161 23.1978C229.451 23.4982 229.671 23.8564 229.828 24.2724C229.99 24.6884 230.066 25.1449 230.066 25.636ZM229.091 25.636C229.091 25.2373 229.039 24.8791 228.929 24.5613C228.819 24.2436 228.662 23.9778 228.465 23.7524C228.268 23.5271 228.018 23.3653 227.734 23.244C227.45 23.1227 227.131 23.0707 226.777 23.0707C226.423 23.0707 226.104 23.1284 225.82 23.244C225.536 23.3596 225.292 23.5271 225.089 23.7524C224.886 23.9778 224.73 24.2436 224.619 24.5613C224.509 24.8791 224.451 25.2373 224.451 25.636C224.451 26.0347 224.509 26.3929 224.619 26.7107C224.73 27.0284 224.886 27.2942 225.089 27.5138C225.292 27.7333 225.536 27.9009 225.82 28.0164C226.104 28.132 226.423 28.1898 226.777 28.1898C227.131 28.1898 227.45 28.132 227.734 28.0164C228.018 27.9009 228.262 27.7333 228.465 27.5138C228.668 27.2942 228.824 27.0284 228.929 26.7107C229.033 26.3987 229.091 26.0404 229.091 25.636Z" fill="white"/>
<path d="M231.318 28.9582V22.3253H233.47C233.882 22.3253 234.242 22.3658 234.537 22.4467C234.833 22.5276 235.077 22.6431 235.268 22.7933C235.46 22.9436 235.599 23.1227 235.692 23.3422C235.784 23.556 235.831 23.7987 235.831 24.0702C235.831 24.232 235.808 24.388 235.755 24.5324C235.703 24.6769 235.628 24.8213 235.529 24.9484C235.425 25.0756 235.297 25.1911 235.146 25.2951C234.99 25.3991 234.81 25.48 234.601 25.5493C235.083 25.6476 235.442 25.8209 235.692 26.0751C235.941 26.3293 236.057 26.6587 236.057 27.0689C236.057 27.352 236.005 27.612 235.9 27.8431C235.796 28.0742 235.639 28.2764 235.442 28.444C235.239 28.6116 234.996 28.7387 234.7 28.8311C234.404 28.9236 234.073 28.9698 233.702 28.9698H231.318V28.9582ZM232.275 25.2778H233.43C233.679 25.2778 233.894 25.2547 234.073 25.1969C234.259 25.1449 234.41 25.0698 234.526 24.9773C234.648 24.8791 234.735 24.7636 234.793 24.6307C234.851 24.4978 234.88 24.3418 234.88 24.18C234.88 23.7987 234.764 23.5156 234.532 23.3422C234.3 23.1689 233.946 23.0764 233.464 23.0764H232.27V25.2778H232.275ZM232.275 25.9538V28.2013H233.685C233.94 28.2013 234.155 28.1724 234.334 28.1147C234.514 28.0569 234.659 27.976 234.775 27.872C234.891 27.768 234.972 27.6467 235.03 27.5022C235.088 27.3578 235.112 27.2076 235.112 27.0342C235.112 26.6991 234.996 26.4391 234.758 26.2427C234.52 26.0462 234.166 25.9538 233.685 25.9538H232.275Z" fill="white"/>
<path d="M100.847 34.4471H101.532C101.601 34.4471 101.665 34.4413 101.717 34.4356C101.77 34.4298 101.828 34.4124 101.88 34.3893C101.932 34.3662 101.978 34.3316 102.025 34.2911C102.071 34.2507 102.118 34.1987 102.164 34.1351L103.858 31.8356C103.904 31.7547 103.968 31.6911 104.037 31.6391C104.107 31.5871 104.188 31.564 104.281 31.564H105.087L103.109 34.2796C102.959 34.4933 102.767 34.6436 102.518 34.7244C102.686 34.7707 102.825 34.84 102.941 34.9382C103.057 35.0364 103.167 35.1751 103.278 35.3427L105.261 38.1969H104.403C104.304 38.1969 104.223 38.1738 104.159 38.1218C104.095 38.0756 104.032 38.0004 103.979 37.9022L102.28 35.5102C102.199 35.3889 102.112 35.3022 102.019 35.256C101.926 35.2098 101.799 35.1867 101.636 35.1867H100.847V38.2027H99.8904V31.5698H100.847V34.4471Z" fill="white"/>
<path d="M107.1 37.4458C107.175 37.4284 107.251 37.3996 107.32 37.3591C107.396 37.3187 107.459 37.2609 107.523 37.1916C107.587 37.1222 107.645 37.024 107.703 36.9142L108.016 36.2613L105.342 31.564H106.236C106.317 31.564 106.386 31.5871 106.433 31.6218C106.479 31.6622 106.526 31.7142 106.56 31.7836L108.15 34.684C108.271 34.9151 108.37 35.1462 108.44 35.3716C108.474 35.256 108.515 35.1404 108.556 35.0249C108.602 34.9151 108.648 34.7996 108.706 34.6782L110.058 31.7778C110.087 31.72 110.127 31.6738 110.18 31.6276C110.232 31.5813 110.301 31.5582 110.383 31.5582H111.177L108.474 37.3187C108.387 37.5036 108.295 37.6538 108.196 37.7751C108.097 37.8964 107.993 37.9889 107.877 38.064C107.761 38.1333 107.639 38.1853 107.512 38.2142C107.384 38.2431 107.239 38.2604 107.088 38.2604C106.914 38.2604 106.775 38.2431 106.682 38.2142C106.589 38.1796 106.543 38.1333 106.543 38.0756V37.4689H106.874C106.943 37.4689 107.024 37.4631 107.1 37.4458Z" fill="white"/>
<path d="M112.94 35.7471V38.2027H111.983V31.5698H113.984C114.408 31.5698 114.779 31.6218 115.092 31.72C115.405 31.8182 115.666 31.9569 115.869 32.136C116.072 32.3151 116.229 32.5347 116.333 32.7889C116.438 33.0431 116.484 33.3262 116.484 33.6382C116.484 33.9502 116.432 34.2333 116.322 34.4933C116.212 34.7533 116.055 34.9729 115.846 35.1636C115.637 35.3542 115.376 35.4987 115.063 35.6027C114.75 35.7067 114.39 35.7587 113.984 35.7587H112.94V35.7471ZM112.94 34.9902H113.984C114.234 34.9902 114.454 34.9556 114.651 34.892C114.843 34.8227 115.005 34.7302 115.139 34.6147C115.266 34.4933 115.365 34.3547 115.434 34.1871C115.498 34.0196 115.533 33.8404 115.533 33.6382C115.533 33.4302 115.504 33.2453 115.44 33.0836C115.376 32.9218 115.284 32.7831 115.15 32.6676C115.023 32.552 114.86 32.4653 114.669 32.4076C114.477 32.3498 114.251 32.3151 113.99 32.3151H112.946V34.9902H112.94Z" fill="white"/>
<path d="M122.244 36.7987C122.296 36.7987 122.342 36.816 122.383 36.8564L122.766 37.2724C122.493 37.5902 122.162 37.8387 121.768 38.012C121.379 38.1853 120.91 38.2778 120.359 38.2778C119.877 38.2778 119.442 38.1969 119.048 38.0293C118.659 37.8618 118.323 37.6307 118.044 37.3302C117.766 37.0298 117.557 36.6716 117.406 36.2556C117.256 35.8396 117.18 35.3831 117.18 34.8804C117.18 34.3836 117.261 33.9213 117.418 33.5053C117.575 33.0893 117.801 32.7311 118.085 32.4364C118.375 32.1418 118.717 31.9049 119.117 31.7431C119.518 31.5756 119.958 31.4947 120.44 31.4947C120.915 31.4947 121.333 31.5698 121.698 31.7258C122.064 31.8818 122.383 32.084 122.655 32.3382L122.342 32.7831C122.319 32.812 122.296 32.8409 122.267 32.8582C122.238 32.8756 122.197 32.8871 122.145 32.8871C122.087 32.8871 122.017 32.8582 121.936 32.8004C121.855 32.7427 121.751 32.6791 121.623 32.604C121.495 32.5289 121.333 32.4653 121.142 32.4076C120.95 32.3498 120.712 32.3209 120.434 32.3209C120.098 32.3209 119.796 32.3787 119.512 32.4942C119.233 32.6098 118.99 32.7773 118.793 32.9969C118.595 33.2164 118.433 33.4822 118.323 33.8C118.213 34.1178 118.155 34.476 118.155 34.8747C118.155 35.2791 118.213 35.6431 118.329 35.9609C118.445 36.2787 118.601 36.5502 118.804 36.7698C119.007 36.9893 119.245 37.1569 119.523 37.2724C119.802 37.388 120.092 37.4458 120.411 37.4458C120.608 37.4458 120.782 37.4342 120.933 37.4111C121.084 37.388 121.229 37.3533 121.362 37.3071C121.495 37.2609 121.617 37.2031 121.733 37.128C121.849 37.0529 121.959 36.9662 122.075 36.8622C122.099 36.8391 122.128 36.8218 122.151 36.8102C122.186 36.8044 122.215 36.7987 122.244 36.7987Z" fill="white"/>
<path d="M124.732 34.4471H125.416C125.486 34.4471 125.55 34.4413 125.602 34.4356C125.654 34.4298 125.712 34.4124 125.764 34.3893C125.816 34.3662 125.863 34.3316 125.909 34.2911C125.956 34.2507 126.002 34.1987 126.048 34.1351L127.742 31.8356C127.794 31.7547 127.852 31.6911 127.922 31.6391C127.991 31.5929 128.073 31.564 128.165 31.564H128.972L126.994 34.2796C126.843 34.4933 126.646 34.6436 126.402 34.7244C126.57 34.7707 126.71 34.84 126.826 34.9382C126.942 35.0364 127.052 35.1751 127.162 35.3427L129.146 38.1969H128.287C128.189 38.1969 128.107 38.1738 128.044 38.1218C127.98 38.0756 127.922 38.0004 127.864 37.9022L126.159 35.5102C126.077 35.3889 125.99 35.3022 125.898 35.256C125.805 35.2098 125.677 35.1867 125.515 35.1867H124.726V38.2027H123.769V31.5698H124.726V34.4471H124.732Z" fill="white"/>
<path d="M135.908 34.8804C135.908 35.3773 135.827 35.8338 135.671 36.2498C135.508 36.6658 135.288 37.024 134.998 37.3244C134.708 37.6249 134.366 37.856 133.96 38.0236C133.554 38.1911 133.107 38.272 132.614 38.272C132.121 38.272 131.674 38.1911 131.268 38.0236C130.862 37.856 130.52 37.6249 130.224 37.3244C129.934 37.024 129.708 36.6658 129.552 36.2498C129.395 35.8338 129.314 35.3773 129.314 34.8804C129.314 34.3893 129.395 33.9329 129.552 33.5169C129.714 33.1009 129.934 32.7427 130.224 32.4422C130.514 32.1418 130.862 31.9107 131.268 31.7431C131.674 31.5756 132.121 31.4889 132.614 31.4889C133.107 31.4889 133.554 31.5756 133.96 31.7431C134.366 31.9107 134.708 32.1418 134.998 32.4422C135.288 32.7427 135.508 33.1009 135.671 33.5169C135.833 33.9329 135.908 34.3893 135.908 34.8804ZM134.928 34.8804C134.928 34.4818 134.876 34.1236 134.766 33.8058C134.656 33.488 134.499 33.2222 134.302 32.9969C134.099 32.7773 133.855 32.6098 133.571 32.4884C133.287 32.3729 132.968 32.3151 132.614 32.3151C132.26 32.3151 131.941 32.3729 131.657 32.4884C131.373 32.604 131.129 32.7773 130.926 32.9969C130.723 33.2164 130.567 33.488 130.456 33.8058C130.346 34.1236 130.294 34.4818 130.294 34.8804C130.294 35.2791 130.346 35.6373 130.456 35.9551C130.567 36.2729 130.723 36.5387 130.926 36.7582C131.129 36.9778 131.373 37.1453 131.657 37.2609C131.941 37.3764 132.26 37.4342 132.614 37.4342C132.968 37.4342 133.287 37.3764 133.571 37.2609C133.855 37.1453 134.099 36.9778 134.302 36.7582C134.505 36.5387 134.661 36.2729 134.766 35.9551C134.876 35.6431 134.928 35.2849 134.928 34.8804Z" fill="white"/>
<path d="M141.453 31.8702C141.5 31.7951 141.558 31.7258 141.633 31.6622C141.708 31.5987 141.79 31.5698 141.882 31.5698H142.596V38.2027H141.633V33.592C141.633 33.4591 141.639 33.3147 141.645 33.1644C141.65 33.0142 141.668 32.8524 141.691 32.6849C141.633 32.8351 141.575 32.968 141.517 33.0893C141.453 33.2107 141.395 33.3262 141.337 33.4244L138.31 37.9022C138.263 37.9773 138.205 38.0467 138.136 38.1102C138.06 38.1738 137.979 38.2027 137.886 38.2027H137.173V31.5698H138.136V36.1804C138.136 36.3133 138.13 36.4578 138.124 36.6022C138.118 36.7467 138.101 36.9027 138.083 37.0702C138.136 36.9258 138.194 36.7929 138.257 36.6716C138.321 36.5502 138.379 36.4404 138.443 36.348L141.453 31.8702ZM139.91 30.6916C140.032 30.6916 140.137 30.68 140.224 30.6511C140.311 30.628 140.38 30.5818 140.432 30.524C140.485 30.4662 140.519 30.3853 140.548 30.2871C140.572 30.1889 140.583 30.0676 140.583 29.9231H141.099C141.163 29.9231 141.21 29.952 141.239 30.004C141.273 30.056 141.285 30.1196 141.285 30.1831C141.285 30.4893 141.163 30.7262 140.92 30.8938C140.676 31.0613 140.34 31.1422 139.91 31.1422C139.481 31.1422 139.145 31.0613 138.901 30.8938C138.658 30.7262 138.536 30.4893 138.536 30.1831C138.536 30.1196 138.553 30.0618 138.582 30.004C138.617 29.952 138.663 29.9231 138.721 29.9231H139.238C139.238 30.0676 139.249 30.1889 139.272 30.2871C139.296 30.3853 139.33 30.4662 139.388 30.524C139.441 30.5818 139.51 30.628 139.597 30.6511C139.684 30.6742 139.783 30.6916 139.91 30.6916Z" fill="white"/>
<path d="M152.798 34.8804C152.798 35.3773 152.717 35.8338 152.56 36.2498C152.404 36.6658 152.177 37.024 151.893 37.3244C151.603 37.6249 151.261 37.856 150.855 38.0236C150.449 38.1911 150.002 38.272 149.509 38.272C149.016 38.272 148.57 38.1911 148.164 38.0236C147.758 37.856 147.416 37.6249 147.126 37.3244C146.836 37.024 146.609 36.6658 146.453 36.2498C146.29 35.8338 146.215 35.3773 146.215 34.8804C146.215 34.3893 146.296 33.9329 146.453 33.5169C146.609 33.1009 146.836 32.7427 147.126 32.4422C147.416 32.1418 147.764 31.9107 148.164 31.7431C148.57 31.5756 149.016 31.4889 149.509 31.4889C150.002 31.4889 150.449 31.5756 150.855 31.7431C151.261 31.9107 151.609 32.1418 151.893 32.4422C152.183 32.7427 152.404 33.1009 152.56 33.5169C152.717 33.9329 152.798 34.3893 152.798 34.8804ZM151.818 34.8804C151.818 34.4818 151.766 34.1236 151.655 33.8058C151.545 33.488 151.389 33.2222 151.191 32.9969C150.988 32.7773 150.745 32.6098 150.461 32.4884C150.176 32.3729 149.857 32.3151 149.504 32.3151C149.15 32.3151 148.831 32.3729 148.547 32.4884C148.262 32.604 148.019 32.7773 147.816 32.9969C147.613 33.2164 147.456 33.488 147.346 33.8058C147.236 34.1236 147.178 34.4818 147.178 34.8804C147.178 35.2791 147.236 35.6373 147.346 35.9551C147.456 36.2729 147.613 36.5387 147.816 36.7582C148.019 36.9778 148.262 37.1453 148.547 37.2609C148.831 37.3764 149.15 37.4342 149.504 37.4342C149.857 37.4342 150.176 37.3764 150.461 37.2609C150.745 37.1453 150.988 36.9778 151.191 36.7582C151.394 36.5387 151.551 36.2729 151.655 35.9551C151.766 35.6431 151.818 35.2849 151.818 34.8804Z" fill="white"/>
<path d="M158.395 32.3151H155.008V34.4009H156.272C156.684 34.4009 157.032 34.4471 157.328 34.5338C157.624 34.6262 157.867 34.7476 158.059 34.9093C158.25 35.0711 158.395 35.2618 158.482 35.4813C158.575 35.7009 158.621 35.9436 158.621 36.1978C158.621 36.504 158.569 36.7813 158.465 37.024C158.36 37.2724 158.204 37.4804 158.006 37.6538C157.803 37.8271 157.56 37.96 157.264 38.0582C156.974 38.1507 156.638 38.1969 156.266 38.1969H154.051V31.5698H158.395V32.3151ZM155.008 35.1578V37.44H156.266C156.522 37.44 156.736 37.4111 156.916 37.3533C157.096 37.2956 157.241 37.2147 157.351 37.1164C157.461 37.0124 157.548 36.8969 157.6 36.7524C157.653 36.6138 157.676 36.4578 157.676 36.2902C157.676 36.1111 157.653 35.9551 157.6 35.8107C157.548 35.672 157.467 35.5507 157.357 35.4524C157.241 35.3542 157.096 35.2791 156.922 35.2329C156.748 35.1867 156.527 35.1578 156.272 35.1578H155.008Z" fill="white"/>
<path d="M164.92 31.5698V38.2027H163.957V32.3151H161.817C161.776 33.1644 161.713 33.8982 161.643 34.5222C161.568 35.1462 161.481 35.6778 161.376 36.1169C161.272 36.556 161.156 36.92 161.022 37.1973C160.889 37.4747 160.744 37.6942 160.587 37.8502C160.431 38.0062 160.263 38.116 160.077 38.1738C159.897 38.2316 159.7 38.2604 159.503 38.2604C159.329 38.2604 159.19 38.2431 159.097 38.2142C159.004 38.1796 158.958 38.1333 158.958 38.0756V37.4689H159.288C159.41 37.4689 159.532 37.4458 159.648 37.3996C159.764 37.3533 159.88 37.2609 159.996 37.1164C160.106 36.9778 160.21 36.7698 160.309 36.504C160.408 36.2382 160.5 35.8858 160.582 35.4524C160.663 35.0133 160.732 34.476 160.79 33.8404C160.848 33.2049 160.895 32.448 160.924 31.564H164.92V31.5698Z" fill="white"/>
<path d="M172.037 38.2027H171.294C171.213 38.2027 171.143 38.1796 171.085 38.1391C171.033 38.0987 170.993 38.0409 170.964 37.9773L170.366 36.4173H167.408L166.811 37.9773C166.788 38.0351 166.747 38.0871 166.695 38.1333C166.637 38.1796 166.567 38.2027 166.486 38.2027H165.749L168.406 31.5698H169.374L172.037 38.2027ZM167.681 35.7356H170.105L169.102 33.124C169.067 33.0431 169.032 32.9449 168.997 32.8351C168.963 32.7253 168.928 32.604 168.893 32.4769C168.858 32.604 168.823 32.7253 168.789 32.8351C168.754 32.9449 168.719 33.0431 168.684 33.124L167.681 35.7356Z" fill="white"/>
<path d="M177.361 36.7987C177.413 36.7987 177.46 36.816 177.5 36.8564L177.883 37.2724C177.61 37.5902 177.28 37.8387 176.885 38.012C176.497 38.1853 176.027 38.2778 175.476 38.2778C174.995 38.2778 174.56 38.1969 174.165 38.0293C173.777 37.8618 173.44 37.6307 173.162 37.3302C172.883 37.0298 172.675 36.6716 172.524 36.2556C172.373 35.8396 172.298 35.3831 172.298 34.8804C172.298 34.3836 172.373 33.9213 172.535 33.5053C172.692 33.0893 172.918 32.7311 173.202 32.4364C173.492 32.1418 173.835 31.9049 174.235 31.7431C174.635 31.5756 175.076 31.4947 175.557 31.4947C176.033 31.4947 176.45 31.5698 176.816 31.7258C177.181 31.8818 177.5 32.084 177.773 32.3382L177.46 32.7831C177.436 32.812 177.413 32.8409 177.384 32.8582C177.355 32.8756 177.315 32.8871 177.262 32.8871C177.204 32.8871 177.135 32.8582 177.054 32.8004C176.972 32.7427 176.874 32.6791 176.74 32.604C176.613 32.5289 176.45 32.4653 176.259 32.4076C176.068 32.3498 175.83 32.3209 175.551 32.3209C175.215 32.3209 174.908 32.3787 174.629 32.4942C174.351 32.6098 174.107 32.7773 173.91 32.9969C173.707 33.2164 173.55 33.4822 173.44 33.8C173.33 34.1178 173.272 34.476 173.272 34.8747C173.272 35.2791 173.33 35.6431 173.446 35.9609C173.562 36.2787 173.719 36.5502 173.922 36.7698C174.125 36.9893 174.362 37.1569 174.641 37.2724C174.919 37.388 175.209 37.4458 175.528 37.4458C175.725 37.4458 175.899 37.4342 176.05 37.4111C176.207 37.388 176.346 37.3533 176.479 37.3071C176.613 37.2609 176.735 37.2031 176.851 37.128C176.967 37.0529 177.077 36.9662 177.193 36.8622C177.216 36.8391 177.245 36.8218 177.268 36.8102C177.303 36.8044 177.332 36.7987 177.361 36.7987Z" fill="white"/>
<path d="M183.422 31.5698V32.3671H181.293V38.2027H180.336V32.3671H178.202V31.5698H183.422Z" fill="white"/>
<path d="M188.677 31.8702C188.723 31.7951 188.781 31.7258 188.857 31.6622C188.932 31.5987 189.013 31.5698 189.106 31.5698H189.819V38.2027H188.857V33.592C188.857 33.4591 188.862 33.3147 188.868 33.1644C188.874 33.0142 188.891 32.8524 188.915 32.6849C188.857 32.8351 188.799 32.968 188.741 33.0893C188.677 33.2107 188.619 33.3262 188.561 33.4244L185.533 37.9022C185.493 37.9773 185.429 38.0467 185.359 38.1102C185.284 38.1738 185.203 38.2027 185.11 38.2027H184.396V31.5698H185.359V36.1804C185.359 36.3133 185.359 36.4578 185.348 36.6022C185.342 36.7467 185.324 36.9027 185.307 37.0702C185.359 36.9258 185.417 36.7929 185.481 36.6716C185.545 36.5502 185.603 36.4404 185.667 36.348L188.677 31.8702Z" fill="white"/>
<path d="M192.83 35.6893V35.8049L191.664 37.6076L191.38 37.4747C191.304 37.44 191.258 37.388 191.24 37.3244C191.229 37.2609 191.24 37.1858 191.287 37.1107L192.012 35.9204C192.035 35.8858 192.052 35.8511 192.076 35.8222C192.099 35.7933 192.116 35.7702 192.139 35.7471C192.116 35.7298 192.099 35.7067 192.076 35.6778C192.052 35.6489 192.029 35.6142 192.012 35.5738L191.287 34.3836C191.246 34.3084 191.229 34.2333 191.24 34.1698C191.258 34.1062 191.298 34.0542 191.38 34.0196L191.664 33.8867L192.83 35.6893ZM194.227 35.6893V35.8049L193.062 37.6076L192.777 37.4747C192.702 37.44 192.656 37.388 192.638 37.3244C192.627 37.2609 192.638 37.1858 192.685 37.1107L193.41 35.9204C193.433 35.8858 193.45 35.8511 193.473 35.8222C193.497 35.7933 193.514 35.7702 193.537 35.7471C193.514 35.7298 193.497 35.7067 193.473 35.6778C193.45 35.6489 193.427 35.6142 193.41 35.5738L192.685 34.3836C192.644 34.3084 192.627 34.2333 192.638 34.1698C192.656 34.1062 192.696 34.0542 192.777 34.0196L193.062 33.8867L194.227 35.6893Z" fill="white"/>
<path d="M48.522 5.63828C48.3798 4.95485 47.9892 4.41628 47.4375 3.94085C46.4915 3.12371 44.6374 2.97328 43.8601 3.90371C43.1075 4.80442 42.1103 4.85271 41.132 5.03285C40.3509 5.17585 39.5964 5.26128 38.9575 5.82399C38.9215 5.85557 38.8835 5.88899 38.8456 5.92056H48.6073C48.5732 5.82956 48.5428 5.73671 48.522 5.63828Z" fill="white"/>
<path d="M25.8668 47.0359C25.5729 47.1046 25.1501 46.9114 25.0743 47.359C24.9966 47.8177 25.4383 47.9997 25.6923 48.3006C26.3028 49.023 27.2564 48.9821 27.9863 49.4334C28.4982 49.751 29.1712 49.5653 29.4195 50.505C29.6395 51.3407 30.6443 51.0436 31.1485 49.9423C31.3343 50.089 31.5031 50.2543 31.7002 50.3731C32.2841 50.7204 33.5278 50.0853 33.579 49.4334C33.598 49.1957 33.4482 48.8651 33.8027 48.7649C34.1762 48.659 34.2748 48.984 34.4454 49.2217C34.7146 49.5987 35.0217 50.0333 35.5791 49.6711C36.1175 49.3201 36.5668 48.8744 36.7109 48.2151C36.8057 47.7806 37.255 47.2457 37.7669 46.8613H26.2725C26.1492 46.943 26.007 47.0024 25.8668 47.0359Z" fill="white"/>
<path d="M33.0463 5.92057C33.1866 5.694 33.215 5.42843 33.2207 5.13314C33.2321 4.46643 32.8738 4.00771 32.4586 3.54343C32.0756 3.11443 31.6604 2.67243 31.9505 2.01128C32.1097 1.64543 32.3657 1.20528 31.8291 0.969426C31.3741 0.770711 30.7902 0.681568 30.4357 1.09943C30.0546 1.547 29.7513 1.59528 29.2394 1.339C28.6593 1.04743 27.8517 1.49871 27.7114 2.12085C27.5863 2.66871 26.5019 3.04943 26.0051 2.71885C25.4535 2.353 24.0695 2.37157 23.751 2.90085C23.1823 3.848 22.3405 4.017 21.3528 4.15628C20.894 4.22128 20.7442 4.16 20.4485 3.83685C20.0541 3.406 19.5005 3.09957 18.9811 2.795C18.6853 2.62043 18.3138 2.49043 18.1166 2.98628C17.9573 3.38557 17.8322 3.78114 18.3668 3.98171C18.5602 4.056 18.7365 4.082 18.545 4.28814C18.0768 4.79328 17.9649 5.577 17.3336 5.92243C16.744 6.24371 16.8407 6.53714 17.1952 6.92714C17.3317 7.07757 17.5933 7.14443 17.3639 7.46757C16.9867 8.00057 16.4919 8.27914 15.8719 8.44257C15.3714 8.57443 15.1913 8.31628 15.0074 7.95228C14.9619 7.865 14.7534 7.83528 14.615 7.81671C14.2188 7.76657 13.7903 7.774 13.6329 8.19557C13.449 8.68771 13.1779 9.21328 13.5078 9.74814C13.9628 10.4854 14.6169 11.1559 14.0917 12.1383C13.9799 12.3463 12.9429 12.1234 12.2528 12.805C11.9627 13.091 10.2508 11.8393 9.48485 12.8756C9.20427 13.2544 8.95213 13.6537 8.44215 13.7317C7.68002 13.8469 7.39185 14.261 7.48854 14.9983C7.553 15.496 7.44494 15.9343 6.80035 15.9659C6.40981 15.9844 6.17283 16.211 6.13113 16.5379C6.08183 16.9297 6.47617 16.9223 6.73969 17.0207C7.58713 17.3364 7.70277 17.55 7.15108 18.1666C6.50271 18.8927 6.72831 19.4647 7.30085 20.0404C7.4601 20.2001 7.81273 20.3357 7.67813 20.5511C7.26104 21.2104 7.70088 21.775 7.78998 22.3767C7.87529 22.9543 7.826 23.4353 7.03165 23.3926C6.03254 23.3387 5.10548 23.6544 4.15377 23.8959C3.65896 24.0221 3.15277 24.3081 2.62004 24.167C2.07025 24.0221 1.74985 24.2673 1.56217 24.6926C1.37069 25.1271 1.75744 25.2906 2.06456 25.467C2.6371 25.7976 3.05229 26.2173 2.9575 26.9416C2.94423 27.0437 2.99163 27.1811 3.06177 27.2591C3.61725 27.8831 4.51208 28.327 4.20306 29.3967C4.19169 29.4357 4.30354 29.5527 4.368 29.562C5.2306 29.6901 4.85523 30.1674 4.71494 30.6206C4.51588 31.2687 4.12533 31.8017 3.75565 32.357C2.97456 33.5233 3.20775 34.0953 4.57085 34.4314C5.25146 34.5986 5.40313 35.0629 5.01827 35.6274C4.66754 36.1437 4.29596 36.6396 3.92058 37.1373C3.22481 38.0584 3.29117 38.2107 4.3206 38.7753C4.42108 38.831 4.53104 38.8923 4.5974 38.9796C5.06946 39.598 5.51308 39.4847 5.92258 38.9276C6.21644 38.5283 6.47048 38.5599 6.94444 38.7381C8.2791 39.2377 9.65358 39.689 11.1077 39.0854C11.5001 38.922 11.794 39.0557 11.8528 39.5126C11.8888 39.7949 11.9191 40.079 11.9589 40.3631C12.0897 41.301 12.431 41.5554 13.4111 41.5796C13.9571 41.5926 14.5183 41.4069 15.0567 41.7003C15.2198 41.7894 15.5231 41.7894 15.6311 41.613C15.9212 41.1357 16.4729 41.0781 16.8976 40.9036C17.5801 40.6213 18.3498 39.9676 19.0038 40.2814C19.4494 40.495 19.7584 40.5749 20.0522 40.4616V5.92057H33.0463Z" fill="white"/>
<path d="M89.4056 23.3443C89.2444 23.1419 88.9961 23.1976 88.7572 23.2756C88.306 23.4241 87.1097 22.555 87.1173 22.0963C87.1192 21.9384 87.2007 21.8103 87.3391 21.7527C88.0159 21.4667 87.8567 20.8836 87.9155 20.3487C87.9989 19.5947 87.5609 18.8927 87.7941 18.1146C87.9894 17.4627 87.4737 17.0597 86.742 17.2046C86.1467 17.3234 85.6063 17.4831 85.1172 16.8424C84.8575 16.5026 84.1428 16.3633 83.8698 16.8109C83.5077 17.407 83.0299 17.3327 82.5237 17.3271C82.0346 17.3216 81.6061 17.5073 81.1644 17.6596C80.7682 17.797 80.6658 18.2149 80.3701 18.4396C79.0487 19.4369 77.6401 18.5454 76.2751 18.5993C76.2409 18.6011 76.1822 18.5176 76.1708 18.4674C75.9774 17.4664 75.3328 16.7031 74.7773 15.886C74.5271 15.5183 74.3299 15.0651 73.8313 15.0986C73.401 15.1264 73.2853 15.5759 73.1829 15.9306C73.0199 16.4951 72.6862 16.4079 72.2483 16.2537C71.7914 16.094 71.7307 15.5629 71.3573 15.3939C69.6396 14.6157 69.0387 14.8683 68.3031 16.6159C68.2689 16.6957 68.2538 16.7849 68.2121 16.8591C67.8272 17.5389 67.0954 17.6076 66.612 16.9984C66.3068 16.6121 66.0015 16.2184 65.7608 15.795C65.4669 15.2787 65.1427 14.9296 64.4564 14.9964C63.9673 15.0429 63.5616 14.7049 63.2166 14.4114C62.881 14.1291 63.3076 13.845 63.3644 13.5571C63.4858 12.9443 63.1824 12.6341 62.5018 12.8087C62.2705 12.8681 62.0525 12.9369 61.8402 12.9461V38.6119C61.8876 38.5153 61.935 38.4391 61.9824 38.3909C62.3672 38.0009 64.1645 37.3509 65.0783 37.2803C65.4916 37.2487 65.7702 37.2301 65.8783 36.712C66.011 36.0676 67.2206 35.4547 67.759 35.75C68.7505 36.296 69.6396 36.3684 70.4681 35.3916C70.6027 35.9673 70.7449 36.4761 71.3535 36.374C72.2938 36.2161 73.4313 36.8513 74.1498 35.7481C74.1764 35.7091 74.256 35.6757 74.3072 35.6813C75.1091 35.7649 75.5205 35.2263 75.966 34.7174C76.294 34.3441 76.6921 34.164 77.2192 34.3664C77.4258 34.4463 77.7102 34.4779 77.9112 34.4054C78.7321 34.112 79.1264 34.541 79.4032 35.1854C79.6117 35.672 79.9056 36.0434 80.3928 36.3294C81.4848 36.972 82.9787 36.8921 83.7446 38.116C83.7655 38.1513 83.8698 38.1754 83.9077 38.1569C84.3134 37.9451 84.6148 38.2293 84.9712 38.3166C85.5552 38.4596 86.1372 38.1884 86.5372 37.8151C86.8936 37.4827 86.4102 37.2301 86.1922 36.9831C85.959 36.7194 86.031 36.4743 86.3325 36.3666C86.7609 36.2143 86.8803 35.8874 86.7704 35.5531C86.6358 35.1446 86.2547 35.1669 85.8812 35.2857C85.4755 35.4139 85.2803 35.321 85.3504 34.8381C85.6329 32.8956 85.5627 31.0403 83.9001 29.6029C83.7314 29.458 83.6859 29.1869 83.5266 29.0253C82.1692 27.6491 83.9134 26.7354 83.8717 26.0557C83.847 25.649 84.048 25.5673 84.4044 25.597C84.7267 25.623 85.0717 25.5469 85.3732 25.6286C87.1496 26.1096 88.3913 25.4726 89.2615 23.9497C89.3847 23.7436 89.5819 23.5634 89.4056 23.3443Z" fill="white"/>
<path d="M38.4153 40.3223C38.7849 40.3223 39.0845 40.0288 39.0845 39.6667C39.0845 39.3046 38.7849 39.0111 38.4153 39.0111C38.0457 39.0111 37.746 39.3046 37.746 39.6667C37.746 40.0288 38.0457 40.3223 38.4153 40.3223Z" fill="white"/>
<path d="M24.3558 30.8304C24.7254 30.8304 25.025 30.5369 25.025 30.1749C25.025 29.8128 24.7254 29.5193 24.3558 29.5193C23.9862 29.5193 23.6865 29.8128 23.6865 30.1749C23.6865 30.5369 23.9862 30.8304 24.3558 30.8304Z" fill="white"/>
<path d="M57.9196 31.8036C58.196 31.8036 58.4201 31.5841 58.4201 31.3133C58.4201 31.0425 58.196 30.823 57.9196 30.823C57.6432 30.823 57.4191 31.0425 57.4191 31.3133C57.4191 31.5841 57.6432 31.8036 57.9196 31.8036Z" fill="white"/>
<path d="M42.5558 37.8839C42.5558 37.8839 39.5281 39.273 41.113 42.4636C41.113 42.4654 44.0573 40.963 42.5558 37.8839Z" fill="white"/>
<path d="M29.0669 32.617C29.0669 32.617 26.1568 31.0031 24.4183 34.1157C24.4183 34.1139 27.3739 35.5977 29.0669 32.617Z" fill="white"/>
<path d="M56.2058 28.6613C56.2058 28.6613 53.053 29.7551 54.3118 33.0813C54.3118 33.0831 57.3926 31.8686 56.2058 28.6613Z" fill="white"/>
<path d="M31.7438 40.3446C31.7438 40.3446 35.2341 42.0049 37.0143 38.2757C37.0143 38.2757 33.4823 36.7714 31.7438 40.3446Z" fill="white"/>
<path d="M31.7438 19.5891C31.359 19.5891 31.0481 19.8956 31.0481 20.2707C31.0481 20.6477 31.3609 20.9523 31.7438 20.9523C32.1268 20.9523 32.4396 20.6459 32.4396 20.2707C32.4415 19.8937 32.1287 19.5891 31.7438 19.5891Z" fill="white"/>
<path d="M61.8459 5.265H20.0503C19.6806 5.265 19.3811 5.55843 19.3811 5.92057V46.8631C19.3811 47.2253 19.6806 47.5187 20.0503 47.5187H61.8459C62.2156 47.5187 62.5151 47.2253 62.5151 46.8631V5.92057C62.5132 5.55843 62.2137 5.265 61.8459 5.265ZM50.5164 31.1851L54.4502 35.9803C50.8349 34.9849 47.5247 34.1399 44.5502 33.4249L48.6964 28.1561C48.8727 27.9314 48.8822 27.6194 48.7172 27.3854L47.847 26.1449C48.1561 25.831 48.4499 25.4986 48.7324 25.1494C49.8528 24.7204 50.7287 24.1911 51.4036 23.6619C53.7109 21.8493 54.2436 19.6839 54.2644 19.591C54.308 19.4053 54.2663 19.2084 54.1507 19.0543C54.035 18.9001 53.8549 18.8036 53.6597 18.7906C53.3241 18.7664 52.9942 18.7497 52.6719 18.7349C54.5355 15.4366 56.9376 11.5514 61.1766 7.59571V37.9043C59.6315 37.4456 58.13 37.011 56.6759 36.6006L51.5591 30.3661C51.3278 30.0839 50.9069 30.0393 50.6187 30.2659C50.3306 30.4906 50.2851 30.9029 50.5164 31.1851ZM46.7493 22.5364C47.5702 22.5364 48.4347 22.4863 49.303 22.3656C45.6251 23.2421 42.4306 22.9506 40.7642 22.672C41.0941 22.4399 41.4391 22.2207 41.805 22.0183C42.5709 22.1817 44.4914 22.5364 46.7493 22.5364ZM44.0231 21.0489C46.3948 20.2447 49.2784 19.9011 52.5923 20.0441C52.5771 20.0516 52.5601 20.0553 52.5449 20.0627C49.8452 21.4333 46.2925 21.3219 44.0231 21.0489ZM44.245 24.2747C45.4469 24.2747 46.8081 24.1819 48.2717 23.9237C45.828 24.8671 42.6487 25.0176 38.9025 24.3509C39.0731 24.1503 39.2589 23.9497 39.4599 23.751C40.1443 23.9163 41.8846 24.2747 44.245 24.2747ZM46.1124 25.844C46.1161 25.8719 46.1199 25.8997 46.1256 25.9276C43.9985 27.7216 41.7083 28.4997 39.3139 28.2304C38.5461 28.145 37.8143 27.9556 37.1318 27.6993C37.2436 27.248 37.5015 26.442 38.0607 25.5209C38.093 25.532 38.1252 25.5413 38.1574 25.5469C41.4353 26.1801 44.044 26.182 46.1124 25.844ZM40.1575 29.5899C40.1898 29.5899 40.2239 29.5917 40.2561 29.5917C42.5842 29.5917 44.7966 28.7356 46.8555 27.0419L47.3409 27.7346L43.1302 33.0869C41.3822 32.6764 39.7613 32.3124 38.2712 31.993L40.1575 29.5899ZM20.7177 46.2076V6.57429H60.3311C55.6351 10.933 53.1307 15.1803 51.1628 18.7033C46.8517 18.7033 43.7634 19.5446 41.5756 20.6533C41.4069 20.7387 41.2439 20.826 41.0865 20.9151C39.9926 21.5261 39.1452 22.1984 38.493 22.8447C36.8493 24.4771 36.1687 26.1764 35.8957 27.1384C34.2406 26.2619 32.9875 25.0529 32.3846 24.1651C31.6983 23.1567 30.9172 22.23 30.0622 21.411C29.8575 21.2141 29.6963 21.021 29.5712 20.8464C29.5086 20.7034 29.4726 20.5623 29.4669 20.4211C29.448 19.9141 29.8215 19.5409 29.8215 19.5409C29.8859 19.4814 29.9352 19.4109 29.9693 19.3347C33.4444 17.0653 36.1232 20.436 36.2351 20.579C36.4398 20.8446 36.8133 20.9189 37.1052 20.7499C41.4581 18.2631 49.741 18.1109 49.8244 18.109C50.0765 18.1053 50.3059 17.9623 50.4159 17.7413L52.8217 12.9034C52.9828 12.5784 52.8463 12.1866 52.5127 12.0287C52.1809 11.8709 51.7809 12.0064 51.6197 12.3314L49.3902 16.8127C47.6688 16.8721 41.1017 17.2306 36.9289 19.3533C35.4995 17.8249 32.4927 16.0699 29.1731 18.2799C29.1446 18.2984 29.1086 18.3189 29.0669 18.3411L25.5046 17.6206C25.1596 17.5519 24.8202 17.7543 24.7255 18.0867C24.6307 18.4191 24.8165 18.7646 25.1463 18.8797C25.7321 19.0821 27.4517 19.8696 27.6602 20.7981C27.7455 21.1789 27.5427 21.6079 27.0554 22.074C26.8298 22.2894 26.7881 22.6311 26.9569 22.893C27.082 23.088 27.2981 23.1976 27.5218 23.1976C27.5995 23.1976 27.6773 23.1846 27.7531 23.1567C28.1891 22.9989 28.9456 22.7797 29.3172 22.763L29.575 22.7983C30.1892 23.439 30.7599 24.1373 31.2718 24.8894C32.324 26.4364 35.0919 28.8359 38.5821 29.4413L36.8247 31.6791C30.2385 30.303 26.5985 29.8387 26.5303 29.8313C26.1625 29.7867 25.8288 30.0393 25.7833 30.3977C25.7378 30.7561 25.9957 31.0849 26.3616 31.1294C26.4545 31.1406 33.325 32.019 45.3445 34.9589L37.911 37.0667C37.5565 37.167 37.3517 37.531 37.4541 37.8783C37.5394 38.1643 37.8067 38.3519 38.0949 38.3519C38.1574 38.3519 38.22 38.3426 38.2807 38.3259L47.9001 35.5977C50.2415 36.192 52.7516 36.8587 55.4228 37.6053C54.346 37.7947 53.1118 38.4726 52.471 40.4263C52.471 40.4263 55.8911 41.3994 57.275 38.129C58.5414 38.4911 59.8401 38.87 61.1729 39.2674V46.202H20.7177V46.2076Z" fill="white"/>
</svg>
