<svg width="91" height="52" viewBox="0 0 91 52" fill="none" xmlns="http://www.w3.org/2000/svg">
<path d="M48.522 5.63828C48.3798 4.95485 47.9892 4.41628 47.4375 3.94085C46.4915 3.12371 44.6374 2.97328 43.8601 3.90371C43.1075 4.80442 42.1103 4.85271 41.132 5.03285C40.3509 5.17585 39.5964 5.26128 38.9575 5.82399C38.9215 5.85557 38.8835 5.88899 38.8456 5.92056H48.6073C48.5732 5.82956 48.5428 5.73671 48.522 5.63828Z" fill="white"/>
<path d="M25.8668 47.0359C25.5729 47.1046 25.1501 46.9114 25.0743 47.359C24.9966 47.8177 25.4383 47.9997 25.6923 48.3006C26.3028 49.023 27.2564 48.9821 27.9863 49.4334C28.4982 49.751 29.1712 49.5653 29.4195 50.505C29.6395 51.3407 30.6443 51.0436 31.1485 49.9423C31.3343 50.089 31.5031 50.2543 31.7002 50.3731C32.2841 50.7204 33.5278 50.0853 33.579 49.4334C33.598 49.1957 33.4482 48.8651 33.8027 48.7649C34.1762 48.659 34.2748 48.984 34.4454 49.2217C34.7146 49.5987 35.0217 50.0333 35.5791 49.6711C36.1175 49.3201 36.5668 48.8744 36.7109 48.2151C36.8057 47.7806 37.255 47.2457 37.7669 46.8613H26.2725C26.1492 46.943 26.007 47.0024 25.8668 47.0359Z" fill="white"/>
<path d="M33.0463 5.92057C33.1866 5.694 33.215 5.42843 33.2207 5.13314C33.2321 4.46643 32.8738 4.00771 32.4586 3.54343C32.0756 3.11443 31.6604 2.67243 31.9505 2.01128C32.1097 1.64543 32.3657 1.20528 31.8291 0.969426C31.3741 0.770711 30.7902 0.681568 30.4357 1.09943C30.0546 1.547 29.7513 1.59528 29.2394 1.339C28.6593 1.04743 27.8517 1.49871 27.7114 2.12085C27.5863 2.66871 26.5019 3.04943 26.0051 2.71885C25.4535 2.353 24.0695 2.37157 23.751 2.90085C23.1823 3.848 22.3405 4.017 21.3528 4.15628C20.894 4.22128 20.7442 4.16 20.4485 3.83685C20.0541 3.406 19.5005 3.09957 18.9811 2.795C18.6853 2.62043 18.3138 2.49043 18.1166 2.98628C17.9573 3.38557 17.8322 3.78114 18.3668 3.98171C18.5602 4.056 18.7365 4.082 18.545 4.28814C18.0768 4.79328 17.9649 5.577 17.3336 5.92243C16.744 6.24371 16.8407 6.53714 17.1952 6.92714C17.3317 7.07757 17.5933 7.14443 17.3639 7.46757C16.9867 8.00057 16.4919 8.27914 15.8719 8.44257C15.3714 8.57443 15.1913 8.31628 15.0074 7.95228C14.9619 7.865 14.7534 7.83528 14.615 7.81671C14.2188 7.76657 13.7903 7.774 13.6329 8.19557C13.449 8.68771 13.1779 9.21328 13.5078 9.74814C13.9628 10.4854 14.6169 11.1559 14.0917 12.1383C13.9799 12.3463 12.9429 12.1234 12.2528 12.805C11.9627 13.091 10.2508 11.8393 9.48485 12.8756C9.20427 13.2544 8.95213 13.6537 8.44215 13.7317C7.68002 13.8469 7.39185 14.261 7.48854 14.9983C7.553 15.496 7.44494 15.9343 6.80035 15.9659C6.40981 15.9844 6.17283 16.211 6.13113 16.5379C6.08183 16.9297 6.47617 16.9223 6.73969 17.0207C7.58713 17.3364 7.70277 17.55 7.15108 18.1666C6.50271 18.8927 6.72831 19.4647 7.30085 20.0404C7.4601 20.2001 7.81273 20.3357 7.67813 20.5511C7.26104 21.2104 7.70088 21.775 7.78998 22.3767C7.87529 22.9543 7.826 23.4353 7.03165 23.3926C6.03254 23.3387 5.10548 23.6544 4.15377 23.8959C3.65896 24.0221 3.15277 24.3081 2.62004 24.167C2.07025 24.0221 1.74985 24.2673 1.56217 24.6926C1.37069 25.1271 1.75744 25.2906 2.06456 25.467C2.6371 25.7976 3.05229 26.2173 2.9575 26.9416C2.94423 27.0437 2.99163 27.1811 3.06177 27.2591C3.61725 27.8831 4.51208 28.327 4.20306 29.3967C4.19169 29.4357 4.30354 29.5527 4.368 29.562C5.2306 29.6901 4.85523 30.1674 4.71494 30.6206C4.51588 31.2687 4.12533 31.8017 3.75565 32.357C2.97456 33.5233 3.20775 34.0953 4.57085 34.4314C5.25146 34.5986 5.40313 35.0629 5.01827 35.6274C4.66754 36.1437 4.29596 36.6396 3.92058 37.1373C3.22481 38.0584 3.29117 38.2107 4.3206 38.7753C4.42108 38.831 4.53104 38.8923 4.5974 38.9796C5.06946 39.598 5.51308 39.4847 5.92258 38.9276C6.21644 38.5283 6.47048 38.5599 6.94444 38.7381C8.2791 39.2377 9.65358 39.689 11.1077 39.0854C11.5001 38.922 11.794 39.0557 11.8528 39.5126C11.8888 39.7949 11.9191 40.079 11.9589 40.3631C12.0897 41.301 12.431 41.5554 13.4111 41.5796C13.9571 41.5926 14.5183 41.4069 15.0567 41.7003C15.2198 41.7894 15.5231 41.7894 15.6311 41.613C15.9212 41.1357 16.4729 41.0781 16.8976 40.9036C17.5801 40.6213 18.3498 39.9676 19.0038 40.2814C19.4494 40.495 19.7584 40.5749 20.0522 40.4616V5.92057H33.0463Z" fill="white"/>
<path d="M89.4056 23.3443C89.2444 23.1419 88.9961 23.1976 88.7572 23.2756C88.306 23.4241 87.1097 22.555 87.1173 22.0963C87.1192 21.9384 87.2007 21.8103 87.3391 21.7527C88.0159 21.4667 87.8567 20.8836 87.9155 20.3487C87.9989 19.5947 87.5609 18.8927 87.7941 18.1146C87.9894 17.4627 87.4737 17.0597 86.742 17.2046C86.1467 17.3234 85.6063 17.4831 85.1172 16.8424C84.8575 16.5026 84.1428 16.3633 83.8698 16.8109C83.5077 17.407 83.0299 17.3327 82.5237 17.3271C82.0346 17.3216 81.6061 17.5073 81.1644 17.6596C80.7682 17.797 80.6658 18.2149 80.3701 18.4396C79.0487 19.4369 77.6401 18.5454 76.2751 18.5993C76.2409 18.6011 76.1822 18.5176 76.1708 18.4674C75.9774 17.4664 75.3328 16.7031 74.7773 15.886C74.5271 15.5183 74.3299 15.0651 73.8313 15.0986C73.401 15.1264 73.2853 15.5759 73.1829 15.9306C73.0199 16.4951 72.6862 16.4079 72.2483 16.2537C71.7914 16.094 71.7307 15.5629 71.3573 15.3939C69.6396 14.6157 69.0387 14.8683 68.3031 16.6159C68.2689 16.6957 68.2538 16.7849 68.2121 16.8591C67.8272 17.5389 67.0954 17.6076 66.612 16.9984C66.3068 16.6121 66.0015 16.2184 65.7608 15.795C65.4669 15.2787 65.1427 14.9296 64.4564 14.9964C63.9673 15.0429 63.5616 14.7049 63.2166 14.4114C62.881 14.1291 63.3076 13.845 63.3644 13.5571C63.4858 12.9443 63.1824 12.6341 62.5018 12.8087C62.2705 12.8681 62.0525 12.9369 61.8402 12.9461V38.6119C61.8876 38.5153 61.935 38.4391 61.9824 38.3909C62.3672 38.0009 64.1645 37.3509 65.0783 37.2803C65.4916 37.2487 65.7702 37.2301 65.8783 36.712C66.011 36.0676 67.2206 35.4547 67.759 35.75C68.7505 36.296 69.6396 36.3684 70.4681 35.3916C70.6027 35.9673 70.7449 36.4761 71.3535 36.374C72.2938 36.2161 73.4313 36.8513 74.1498 35.7481C74.1764 35.7091 74.256 35.6757 74.3072 35.6813C75.1091 35.7649 75.5205 35.2263 75.966 34.7174C76.294 34.3441 76.6921 34.164 77.2192 34.3664C77.4258 34.4463 77.7102 34.4779 77.9112 34.4054C78.7321 34.112 79.1264 34.541 79.4032 35.1854C79.6117 35.672 79.9056 36.0434 80.3928 36.3294C81.4848 36.972 82.9787 36.8921 83.7446 38.116C83.7655 38.1513 83.8698 38.1754 83.9077 38.1569C84.3134 37.9451 84.6148 38.2293 84.9712 38.3166C85.5552 38.4596 86.1372 38.1884 86.5372 37.8151C86.8936 37.4827 86.4102 37.2301 86.1922 36.9831C85.959 36.7194 86.031 36.4743 86.3325 36.3666C86.7609 36.2143 86.8803 35.8874 86.7704 35.5531C86.6358 35.1446 86.2547 35.1669 85.8812 35.2857C85.4755 35.4139 85.2803 35.321 85.3504 34.8381C85.6329 32.8956 85.5627 31.0403 83.9001 29.6029C83.7314 29.458 83.6859 29.1869 83.5266 29.0253C82.1692 27.6491 83.9134 26.7354 83.8717 26.0557C83.847 25.649 84.048 25.5673 84.4044 25.597C84.7267 25.623 85.0717 25.5469 85.3732 25.6286C87.1496 26.1096 88.3913 25.4726 89.2615 23.9497C89.3847 23.7436 89.5819 23.5634 89.4056 23.3443Z" fill="white"/>
<path d="M38.4153 40.3223C38.7849 40.3223 39.0845 40.0288 39.0845 39.6667C39.0845 39.3046 38.7849 39.0111 38.4153 39.0111C38.0457 39.0111 37.746 39.3046 37.746 39.6667C37.746 40.0288 38.0457 40.3223 38.4153 40.3223Z" fill="white"/>
<path d="M24.3558 30.8304C24.7254 30.8304 25.025 30.5369 25.025 30.1749C25.025 29.8128 24.7254 29.5193 24.3558 29.5193C23.9862 29.5193 23.6865 29.8128 23.6865 30.1749C23.6865 30.5369 23.9862 30.8304 24.3558 30.8304Z" fill="white"/>
<path d="M57.9196 31.8036C58.196 31.8036 58.4201 31.5841 58.4201 31.3133C58.4201 31.0425 58.196 30.823 57.9196 30.823C57.6432 30.823 57.4191 31.0425 57.4191 31.3133C57.4191 31.5841 57.6432 31.8036 57.9196 31.8036Z" fill="white"/>
<path d="M42.5558 37.8839C42.5558 37.8839 39.5281 39.273 41.113 42.4636C41.113 42.4654 44.0573 40.963 42.5558 37.8839Z" fill="white"/>
<path d="M29.0669 32.617C29.0669 32.617 26.1568 31.0031 24.4183 34.1157C24.4183 34.1139 27.3739 35.5977 29.0669 32.617Z" fill="white"/>
<path d="M56.2058 28.6613C56.2058 28.6613 53.053 29.7551 54.3118 33.0813C54.3118 33.0831 57.3926 31.8686 56.2058 28.6613Z" fill="white"/>
<path d="M31.7438 40.3446C31.7438 40.3446 35.2341 42.0049 37.0143 38.2757C37.0143 38.2757 33.4823 36.7714 31.7438 40.3446Z" fill="white"/>
<path d="M31.7438 19.5891C31.359 19.5891 31.0481 19.8956 31.0481 20.2707C31.0481 20.6477 31.3609 20.9523 31.7438 20.9523C32.1268 20.9523 32.4396 20.6459 32.4396 20.2707C32.4415 19.8937 32.1287 19.5891 31.7438 19.5891Z" fill="white"/>
<path d="M61.8459 5.265H20.0503C19.6806 5.265 19.3811 5.55843 19.3811 5.92057V46.8631C19.3811 47.2253 19.6806 47.5187 20.0503 47.5187H61.8459C62.2156 47.5187 62.5151 47.2253 62.5151 46.8631V5.92057C62.5132 5.55843 62.2137 5.265 61.8459 5.265ZM50.5164 31.1851L54.4502 35.9803C50.8349 34.9849 47.5247 34.1399 44.5502 33.4249L48.6964 28.1561C48.8727 27.9314 48.8822 27.6194 48.7172 27.3854L47.847 26.1449C48.1561 25.831 48.4499 25.4986 48.7324 25.1494C49.8528 24.7204 50.7287 24.1911 51.4036 23.6619C53.7108 21.8493 54.2436 19.6839 54.2644 19.591C54.308 19.4053 54.2663 19.2084 54.1507 19.0543C54.035 18.9001 53.8549 18.8036 53.6597 18.7906C53.3241 18.7664 52.9942 18.7497 52.6719 18.7349C54.5355 15.4366 56.9376 11.5514 61.1766 7.59571V37.9043C59.6315 37.4456 58.13 37.011 56.6759 36.6006L51.5591 30.3661C51.3278 30.0839 50.9069 30.0393 50.6187 30.2659C50.3306 30.4906 50.2851 30.9029 50.5164 31.1851ZM46.7493 22.5364C47.5702 22.5364 48.4347 22.4863 49.303 22.3656C45.6251 23.2421 42.4306 22.9506 40.7642 22.672C41.0941 22.4399 41.4391 22.2207 41.805 22.0183C42.5709 22.1817 44.4914 22.5364 46.7493 22.5364ZM44.0231 21.0489C46.3948 20.2447 49.2784 19.9011 52.5923 20.0441C52.5771 20.0516 52.5601 20.0553 52.5449 20.0627C49.8452 21.4333 46.2925 21.3219 44.0231 21.0489ZM44.245 24.2747C45.4469 24.2747 46.8081 24.1819 48.2717 23.9237C45.828 24.8671 42.6487 25.0176 38.9025 24.3509C39.0731 24.1503 39.2589 23.9497 39.4599 23.751C40.1443 23.9163 41.8846 24.2747 44.245 24.2747ZM46.1124 25.844C46.1161 25.8719 46.1199 25.8997 46.1256 25.9276C43.9985 27.7216 41.7083 28.4997 39.3139 28.2304C38.5461 28.145 37.8143 27.9556 37.1318 27.6993C37.2436 27.248 37.5015 26.442 38.0607 25.5209C38.093 25.532 38.1252 25.5413 38.1574 25.5469C41.4353 26.1801 44.044 26.182 46.1124 25.844ZM40.1575 29.5899C40.1898 29.5899 40.2239 29.5917 40.2561 29.5917C42.5842 29.5917 44.7966 28.7356 46.8555 27.0419L47.3409 27.7346L43.1302 33.0869C41.3822 32.6764 39.7613 32.3124 38.2712 31.993L40.1575 29.5899ZM20.7177 46.2076V6.57429H60.3311C55.6351 10.933 53.1307 15.1803 51.1628 18.7033C46.8517 18.7033 43.7634 19.5446 41.5756 20.6533C41.4069 20.7387 41.2439 20.826 41.0865 20.9151C39.9926 21.5261 39.1452 22.1984 38.493 22.8447C36.8493 24.4771 36.1687 26.1764 35.8957 27.1384C34.2406 26.2619 32.9875 25.0529 32.3846 24.1651C31.6983 23.1567 30.9172 22.23 30.0622 21.411C29.8575 21.2141 29.6963 21.021 29.5712 20.8464C29.5086 20.7034 29.4726 20.5623 29.4669 20.4211C29.448 19.9141 29.8215 19.5409 29.8215 19.5409C29.8859 19.4814 29.9352 19.4109 29.9693 19.3347C33.4444 17.0653 36.1232 20.436 36.2351 20.579C36.4398 20.8446 36.8133 20.9189 37.1052 20.7499C41.4581 18.2631 49.741 18.1109 49.8244 18.109C50.0765 18.1053 50.3059 17.9623 50.4159 17.7413L52.8217 12.9034C52.9828 12.5784 52.8463 12.1866 52.5127 12.0287C52.1809 11.8709 51.7809 12.0064 51.6197 12.3314L49.3902 16.8127C47.6688 16.8721 41.1017 17.2306 36.9289 19.3533C35.4995 17.8249 32.4927 16.0699 29.1731 18.2799C29.1446 18.2984 29.1086 18.3189 29.0669 18.3411L25.5046 17.6206C25.1596 17.5519 24.8202 17.7543 24.7255 18.0867C24.6307 18.4191 24.8165 18.7646 25.1463 18.8797C25.7321 19.0821 27.4517 19.8696 27.6602 20.7981C27.7455 21.1789 27.5427 21.6079 27.0554 22.074C26.8298 22.2894 26.7881 22.6311 26.9569 22.893C27.082 23.088 27.2981 23.1976 27.5218 23.1976C27.5995 23.1976 27.6773 23.1846 27.7531 23.1567C28.1891 22.9989 28.9456 22.7797 29.3172 22.763L29.575 22.7983C30.1892 23.439 30.7599 24.1373 31.2718 24.8894C32.324 26.4364 35.0919 28.8359 38.5821 29.4413L36.8247 31.6791C30.2385 30.303 26.5985 29.8387 26.5303 29.8313C26.1625 29.7867 25.8288 30.0393 25.7833 30.3977C25.7378 30.7561 25.9957 31.0849 26.3616 31.1294C26.4545 31.1406 33.325 32.019 45.3445 34.9589L37.911 37.0667C37.5565 37.167 37.3517 37.531 37.4541 37.8783C37.5394 38.1643 37.8067 38.3519 38.0949 38.3519C38.1574 38.3519 38.22 38.3426 38.2807 38.3259L47.9001 35.5977C50.2415 36.192 52.7516 36.8587 55.4228 37.6053C54.346 37.7947 53.1118 38.4726 52.471 40.4263C52.471 40.4263 55.8911 41.3994 57.275 38.129C58.5414 38.4911 59.8401 38.87 61.1729 39.2674V46.202H20.7177V46.2076Z" fill="white"/>
</svg>
